<svg width="1048" height="35" viewBox="0 0 1048 35" fill="none" xmlns="http://www.w3.org/2000/svg">
    <path d="M0.333333 31.5C0.333333 32.9728 1.52724 34.1667 3 34.1667C4.47276 34.1667 5.66667 32.9728 5.66667 31.5C5.66667 30.0272 4.47276 28.8333 3 28.8333C1.52724 28.8333 0.333333 30.0272 0.333333 31.5ZM359.5 31.5V32H359.696L359.84 31.867L359.5 31.5ZM393 0.5V0H392.804L392.66 0.133019L393 0.5ZM3 32H359.5V31H3V32ZM359.84 31.867L393.34 0.866981L392.66 0.133019L359.16 31.133L359.84 31.867ZM393 1H1048V0H393V1Z"
          fill="#2C76A8"/>
</svg>
