<svg width="1328" height="35" viewBox="0 0 1328 35" fill="none" xmlns="http://www.w3.org/2000/svg">
<path d="M0.333333 31.5C0.333333 32.9728 1.52724 34.1667 3 34.1667C4.47276 34.1667 5.66667 32.9728 5.66667 31.5C5.66667 30.0272 4.47276 28.8333 3 28.8333C1.52724 28.8333 0.333333 30.0272 0.333333 31.5ZM941.5 31.5V32H941.696L941.84 31.867L941.5 31.5ZM975 0.5V0H974.804L974.66 0.133019L975 0.5ZM3 32H941.5V31H3V32ZM941.84 31.867L975.34 0.866981L974.66 0.133019L941.16 31.133L941.84 31.867ZM975 1H1414V0H975V1Z" fill="#2C76A8"/>
</svg>
