<svg width="321" height="35" viewBox="0 0 321 35" fill="none" xmlns="http://www.w3.org/2000/svg">
<path d="M0.333333 32C0.333333 33.4728 1.52724 34.6667 3 34.6667C4.47276 34.6667 5.66667 33.4728 5.66667 32C5.66667 30.5272 4.47276 29.3333 3 29.3333C1.52724 29.3333 0.333333 30.5272 0.333333 32ZM204.5 32V32.5H204.696L204.84 32.367L204.5 32ZM238 1V0.5H237.804L237.66 0.633019L238 1ZM3 32.5H204.5V31.5H3V32.5ZM204.84 32.367L238.34 1.36698L237.66 0.633019L204.16 31.633L204.84 32.367ZM238 1.5H321V0.5H238V1.5Z" fill="#2C76A8"/>
</svg>
