<svg width="21" height="16" viewBox="0 0 21 16" fill="none" xmlns="http://www.w3.org/2000/svg">
<path d="M20.3536 8.35355C20.5488 8.15829 20.5488 7.84171 20.3536 7.64645L17.1716 4.46447C16.9763 4.2692 16.6597 4.2692 16.4645 4.46447C16.2692 4.65973 16.2692 4.97631 16.4645 5.17157L19.2929 8L16.4645 10.8284C16.2692 11.0237 16.2692 11.3403 16.4645 11.5355C16.6597 11.7308 16.9763 11.7308 17.1716 11.5355L20.3536 8.35355ZM0 8.5L1.66667 8.5V7.5L0 7.5L0 8.5ZM5 8.5L8.33333 8.5V7.5L5 7.5V8.5ZM11.6667 8.5L15 8.5V7.5L11.6667 7.5V8.5ZM18.3333 8.5H20V7.5L18.3333 7.5V8.5ZM20.7071 8.70711C21.0976 8.31658 21.0976 7.68342 20.7071 7.29289L14.3431 0.928932C13.9526 0.538408 13.3195 0.538408 12.9289 0.928932C12.5384 1.31946 12.5384 1.95262 12.9289 2.34315L18.5858 8L12.9289 13.6569C12.5384 14.0474 12.5384 14.6805 12.9289 15.0711C13.3195 15.4616 13.9526 15.4616 14.3431 15.0711L20.7071 8.70711ZM0 9L1.66667 9V7L0 7L0 9ZM5 9L8.33333 9V7L5 7V9ZM11.6667 9L15 9V7L11.6667 7V9ZM18.3333 9H20V7L18.3333 7V9Z" fill="url(#paint0_linear_414_708)"/>
<defs>
<linearGradient id="paint0_linear_414_708" x1="10" y1="8" x2="10" y2="9" gradientUnits="userSpaceOnUse">
<stop stop-color="#009BFF"/>
<stop offset="1" stop-color="#00FFFF"/>
</linearGradient>
</defs>
</svg>
