<svg width="58" height="15" viewBox="0 0 58 15" fill="none" xmlns="http://www.w3.org/2000/svg">
    <path d="M57.3536 7.73881C57.5488 7.54355 57.5488 7.22696 57.3536 7.0317L54.1716 3.84972C53.9763 3.65446 53.6597 3.65446 53.4645 3.84972C53.2692 4.04498 53.2692 4.36156 53.4645 4.55683L56.2929 7.38525L53.4645 10.2137C53.2692 10.4089 53.2692 10.7255 53.4645 10.9208C53.6597 11.1161 53.9763 11.1161 54.1716 10.9208L57.3536 7.73881ZM0 7.88525H2.03571V6.88525H0V7.88525ZM6.10714 7.88525H10.1786V6.88525H6.10714V7.88525ZM14.25 7.88525H18.3214V6.88525H14.25V7.88525ZM22.3929 7.88525H26.4643V6.88525H22.3929V7.88525ZM30.5357 7.88525H34.6071V6.88525H30.5357V7.88525ZM38.6786 7.88525H42.75V6.88525H38.6786V7.88525ZM46.8214 7.88525H50.8929V6.88525H46.8214V7.88525ZM54.9643 7.88525H57V6.88525H54.9643V7.88525ZM57.7071 8.09236C58.0976 7.70184 58.0976 7.06867 57.7071 6.67815L51.3431 0.314186C50.9526 -0.0763383 50.3195 -0.0763383 49.9289 0.314186C49.5384 0.70471 49.5384 1.33788 49.9289 1.7284L55.5858 7.38525L49.9289 13.0421C49.5384 13.4326 49.5384 14.0658 49.9289 14.4563C50.3195 14.8468 50.9526 14.8468 51.3431 14.4563L57.7071 8.09236ZM0 8.38525H2.03571V6.38525H0V8.38525ZM6.10714 8.38525H10.1786V6.38525H6.10714V8.38525ZM14.25 8.38525H18.3214V6.38525H14.25V8.38525ZM22.3929 8.38525H26.4643V6.38525H22.3929V8.38525ZM30.5357 8.38525H34.6071V6.38525H30.5357V8.38525ZM38.6786 8.38525H42.75V6.38525H38.6786V8.38525ZM46.8214 8.38525H50.8929V6.38525H46.8214V8.38525ZM54.9643 8.38525H57V6.38525H54.9643V8.38525Z"
          fill="url(#paint0_linear_189_135)"/>
    <defs>
        <linearGradient id="paint0_linear_189_135" x1="28.5" y1="7.38525" x2="28.5" y2="8.38525"
                        gradientUnits="userSpaceOnUse">
            <stop stop-color="#009BFF"/>
            <stop offset="1" stop-color="#00FFFF"/>
        </linearGradient>
    </defs>
</svg>
