<svg xmlns="http://www.w3.org/2000/svg" width="206" height="206" viewBox="0 0 206 206" fill="none">
    <path d="M145.553 47.7116L145.434 47.83L141.31 50.2923C140.196 49.5383 138.882 49.1291 137.534 49.1164C136.184 49.0919 134.862 49.5045 133.767 50.2923C132.661 51.0373 131.802 52.0916 131.299 53.322C130.795 54.5524 130.668 55.9038 130.936 57.2056C131.228 58.5289 131.882 59.7466 132.823 60.7254C133.775 61.7061 135.012 62.3634 136.361 62.6037C137.664 62.841 139.009 62.7182 140.247 62.2485C141.504 61.7715 142.576 60.9092 143.309 59.7863C144.052 58.6738 144.462 57.3735 144.49 56.0376C144.487 55.318 144.367 54.6037 144.133 53.9226L147.79 51.6971L150.36 50.387C155.309 47.8064 155.777 47.688 162.613 51.555C163.557 52.1469 164.382 52.7309 165.088 53.1965C169.799 56.2428 170.156 56.4796 170.156 64.4504C170.156 65.3895 170.037 66.3287 170.037 67.2678C169.799 72.7921 169.68 73.2499 162.843 77.2353L160.67 78.4269C159.543 77.3648 158.091 76.7067 156.546 76.5566C155.006 76.4675 153.478 76.8773 152.192 77.7246C150.927 78.6251 149.979 79.8975 149.479 81.3627C149.022 82.867 149.106 84.4829 149.717 85.9321C150.331 87.3294 151.394 88.4842 152.739 89.2152C154.113 89.9314 155.699 90.1383 157.212 89.7992C158.735 89.4883 160.105 88.6667 161.093 87.4716C162.08 86.2764 162.625 84.7802 162.637 83.2331C162.657 82.8791 162.617 82.5242 162.518 82.1835L164.755 81.0076H164.874C173.947 75.8463 173.947 75.2623 174.304 67.4098C174.304 66.6207 174.415 65.7683 174.415 64.4741V64.3636C174.415 53.9226 173.947 53.6937 167.349 49.4715C166.643 48.998 165.818 48.5324 164.874 47.9484L164.755 47.83C155.681 42.6687 155.237 42.9055 148.139 46.4253C147.314 46.7725 146.489 47.2302 145.553 47.7116ZM139.898 57.324C139.552 57.7718 139.107 58.1337 138.597 58.3815C138.074 58.5935 137.496 58.635 136.948 58.4999C136.367 58.401 135.833 58.1253 135.417 57.7107C135.018 57.2841 134.744 56.7576 134.624 56.1876C134.54 55.6384 134.58 55.0775 134.743 54.546C134.959 54.0188 135.329 53.5681 135.805 53.2518C136.29 52.9231 136.869 52.7598 137.455 52.7861C137.824 52.7806 138.191 52.8474 138.533 52.9828C138.876 53.1182 139.189 53.3196 139.454 53.5753C139.713 53.8372 139.917 54.1481 140.053 54.4897C140.189 54.8313 140.255 55.1967 140.247 55.5641C140.315 55.8654 140.319 56.1777 140.259 56.4807C140.199 56.7838 140.076 57.071 139.898 57.324ZM158.513 83.5882C158.414 84.1655 158.136 84.6977 157.72 85.1114C157.291 85.508 156.762 85.7808 156.189 85.9006C155.637 85.9843 155.073 85.9438 154.539 85.7822C154.01 85.5696 153.557 85.2039 153.239 84.7326C152.91 84.2492 152.746 83.6739 152.771 83.0911C152.769 82.3762 153.041 81.6875 153.532 81.1654C153.795 80.9075 154.108 80.7048 154.451 80.5692C154.794 80.4336 155.161 80.368 155.531 80.3762C156.117 80.3499 156.696 80.5132 157.181 80.8419C157.639 81.1601 158.019 81.5785 158.291 82.0651C158.449 82.2822 158.552 82.5342 158.59 82.7995C158.629 83.0648 158.603 83.3354 158.513 83.5882Z" fill="#009BFF"/>
    <path d="M180.667 83.1229C185.378 86.1692 185.735 86.398 185.735 94.3768C185.636 95.3098 185.596 96.2482 185.616 97.1863C185.378 102.711 185.378 103.168 178.422 107.154L177.01 107.738C175.93 106.571 174.469 105.824 172.886 105.631C171.33 105.403 169.744 105.736 168.413 106.57C167.07 107.411 166.067 108.697 165.581 110.2C165.091 111.694 165.133 113.31 165.7 114.777C166.306 116.235 167.4 117.44 168.796 118.188C170.192 118.936 171.805 119.181 173.362 118.881C174.908 118.515 176.305 117.689 177.367 116.514C178.402 115.307 178.948 113.759 178.898 112.173V111.589L180.548 110.879L180.667 110.768C189.74 105.607 189.74 105.023 190.089 97.1626C190.089 96.3734 190.208 95.4027 190.208 94.2347V94.1163C190.208 83.6832 189.74 83.4465 183.141 79.2243C182.435 78.7587 181.611 78.2852 180.667 77.7012L180.548 77.5828C179.247 76.8804 178.168 76.2964 177.248 75.7124C177.051 76.2519 176.784 76.7638 176.455 77.2355C175.962 77.9778 175.367 78.6473 174.686 79.2243C175.63 79.6978 176.923 80.4002 178.343 81.221C179.053 81.9294 179.831 82.5665 180.667 83.1229ZM174.417 113.838C174.072 114.283 173.63 114.645 173.124 114.896C172.581 115.086 171.996 115.12 171.435 114.994C170.874 114.869 170.36 114.588 169.951 114.185C169.551 113.76 169.276 113.233 169.158 112.662C169.075 112.113 169.116 111.552 169.277 111.021C169.491 110.496 169.859 110.048 170.332 109.734C170.815 109.402 171.395 109.236 171.982 109.261C172.76 109.276 173.51 109.554 174.107 110.05C174.367 110.314 174.57 110.626 174.706 110.969C174.843 111.312 174.909 111.678 174.901 112.047C174.947 112.681 174.777 113.313 174.417 113.838Z" fill="#009BFF"/>
    <path d="M136.476 80.5413C136.476 81.3305 136.357 82.1829 136.357 83.4692V83.5876C136.357 94.0207 136.825 94.2575 143.424 98.4796C144.13 98.9453 144.955 99.4188 145.899 100.003L146.018 100.121C155.091 105.275 155.535 105.046 162.515 101.526C163.308 101.171 164.165 100.737 165.109 100.24H165.228L173.952 94.8415L171.715 91.2112L163.11 96.483C162.166 96.9565 161.341 97.4221 160.635 97.7773C155.686 100.35 155.218 100.468 148.381 96.6014L145.907 94.9599C141.196 91.9136 140.839 91.6768 140.839 83.706C140.839 82.7669 140.958 81.8277 140.958 80.8886C141.196 76.0824 141.196 75.1433 145.669 72.3338C147.794 71.0395 150.031 69.7531 152.268 68.4667C153.07 69.2365 154.046 69.8023 155.115 70.1161C156.186 70.442 157.324 70.4801 158.415 70.2266C159.496 70.004 160.506 69.5218 161.357 68.8219C162.215 68.1039 162.866 67.1726 163.245 66.1228C163.641 65.0759 163.801 63.955 163.713 62.8398C163.607 61.7372 163.201 60.6841 162.539 59.7935C161.922 58.8799 161.067 58.1512 160.064 57.6864C159.093 57.1638 157.994 56.9205 156.892 56.984H157.011C155.2 56.9884 153.465 57.703 152.18 58.9728C151.529 59.5981 151.013 60.3488 150.662 61.1791C150.312 62.0094 150.135 62.9021 150.142 63.8026C150.122 64.1983 150.162 64.5947 150.261 64.9785C147.549 66.5016 145.55 67.6775 143.916 68.6088C136.825 72.3338 136.825 73.5018 136.476 80.5413ZM154.623 61.435C154.886 61.1771 155.199 60.9744 155.542 60.8388C155.886 60.7032 156.253 60.6376 156.622 60.6458C157.209 60.6194 157.789 60.7858 158.272 61.1194C158.721 61.4604 159.085 61.9008 159.335 62.4057C159.551 62.9259 159.593 63.5016 159.454 64.0473C159.354 64.6245 159.077 65.1567 158.66 65.5704C158.232 65.967 157.703 66.2398 157.13 66.3596C156.578 66.4433 156.014 66.4028 155.48 66.2412C154.951 66.0286 154.498 65.663 154.179 65.1916C153.851 64.7082 153.687 64.1329 153.711 63.5501C153.765 62.7624 154.087 62.0164 154.623 61.435Z" fill="#009BFF"/>
    <path d="M162.256 142.564C162.254 141.329 161.929 140.116 161.312 139.044C160.656 137.991 159.72 137.139 158.608 136.582C157.482 136.003 156.213 135.759 154.951 135.879C153.683 136.007 152.466 136.449 151.414 137.166C150.387 137.897 149.607 138.92 149.177 140.101C148.714 141.253 148.592 142.513 148.828 143.732C149.058 144.958 149.63 146.096 150.478 147.015C151.333 147.955 152.43 148.646 153.65 149.011V149.943C153.65 150.882 153.532 151.821 153.532 152.76C153.294 158.387 153.175 158.742 146.227 162.728C145.283 163.193 144.458 163.667 143.633 164.014C138.684 166.595 138.216 166.713 131.379 162.846C130.435 162.254 129.611 161.67 128.905 161.204C125.962 159.326 124.78 158.505 124.193 156.864V106.095L131.379 110.041C131.281 110.465 131.241 110.901 131.26 111.335C131.227 112.883 131.772 114.388 132.791 115.558C133.787 116.753 135.154 117.586 136.677 117.925C138.194 118.261 139.78 118.054 141.159 117.341C142.545 116.617 143.658 115.465 144.331 114.058C144.97 112.659 145.097 111.081 144.688 109.599C144.308 108.078 143.387 106.746 142.094 105.851C140.842 104.916 139.295 104.457 137.732 104.556C136.186 104.676 134.71 105.247 133.489 106.198L124.185 101.044V47.8293V46.8901C124.403 46.1104 124.907 45.4402 125.597 45.0119C127.245 43.7049 129.02 42.5654 130.895 41.6104L133.489 40.3241C138.462 37.7592 138.954 37.625 145.783 41.5L146.964 42.2892C148.519 41.4641 150.133 40.7571 151.795 40.1741L150.613 39.4717L148.138 37.9802L148.027 37.8618C139.073 32.59 138.462 32.9372 131.53 36.457L128.944 37.7592L128.825 37.8776C126.717 39.0573 124.673 40.3482 122.702 41.7446C122.464 41.9814 122.226 42.0997 122.107 42.3365C121.722 41.5479 121.245 40.8064 120.688 40.1268C117.745 36.1019 112.558 32.2349 103.723 32.2349C94.887 32.2349 89.5809 36.1019 86.7494 40.1268C86.1399 41.0301 85.5889 41.9711 85.0997 42.9442C84.8131 42.6527 84.4997 42.3885 84.1638 42.155C82.2853 40.6233 80.2265 39.3248 78.0328 38.288L77.9139 38.1696L75.3203 36.8753C68.3724 33.3634 67.7855 33.0083 58.712 38.288L58.5931 38.4063L56.1185 39.9295L54.9367 40.6319C56.5978 41.2122 58.2125 41.9165 59.7669 42.739L60.9487 41.9498C67.7855 38.0038 68.2535 38.2011 73.2026 40.7818C73.9958 41.129 74.8524 41.571 75.7962 42.0682C77.6739 43.0197 79.4491 44.1594 81.0943 45.4696C81.6842 45.9528 82.1676 46.5519 82.5141 47.2295V101.289L66.4848 110.199L68.6104 113.956L82.6251 106.214V157.448C82.1572 159.208 80.8643 160.028 77.9139 161.907C77.208 162.372 76.3831 162.846 75.4393 163.548C68.6104 167.534 68.1345 167.297 63.1853 164.716C62.4794 164.369 61.6546 163.927 60.5918 163.43C53.6439 159.444 53.6439 158.971 53.4059 153.462C53.4059 152.523 53.287 151.584 53.287 150.653L53.5249 146.312C53.5395 146.044 53.499 145.775 53.4059 145.523C53.1864 144.992 52.7643 144.569 52.2321 144.347C51.9831 144.226 51.7147 144.148 51.439 144.118C51.1692 144.103 50.8992 144.144 50.6458 144.237C50.3822 144.345 50.1424 144.503 49.9399 144.702C49.7415 144.907 49.5804 145.145 49.464 145.405C49.3344 145.65 49.2537 145.918 49.2261 146.194L48.9961 150.882V151C49.0884 151.976 49.1281 152.956 49.1151 153.936C49.4641 161.67 49.464 162.254 58.5375 167.534L58.6565 167.652C59.6003 168.118 60.4252 168.591 61.2501 168.938C68.1979 172.458 68.7849 172.805 77.8583 167.534L77.9773 167.415L80.4519 165.892C84.5762 163.193 86.2259 162.144 87.1698 158.505V55.1214L87.6377 48.6737V48.5553C87.6297 48.491 87.6362 48.4258 87.6568 48.3643C87.6773 48.3029 87.7115 48.2468 87.7567 48.2002C87.8474 47.7253 87.9666 47.2562 88.1136 46.7954C88.5413 45.2862 89.205 43.8534 90.0806 42.5496C92.2062 39.6217 96.0926 36.457 103.635 36.457C110.94 36.457 114.945 39.6138 117.182 42.668C118.182 43.9714 118.942 45.441 119.427 47.0085C119.523 47.4035 119.639 47.7933 119.776 48.1765L119.871 157.787V158.024C119.871 158.253 119.871 158.505 119.871 158.624V163.193V163.312C119.881 163.551 119.84 163.791 119.752 164.014C119.582 164.873 119.219 165.682 118.689 166.381C117.396 168.023 114.097 170.02 105.999 169.436C100.447 169.081 98.1071 167.068 97.0443 165.679C96.6762 165.243 96.3937 164.743 96.2115 164.203C96.0964 163.806 96.0194 163.399 95.9815 162.988C95.7832 140.685 95.9101 95.1176 95.9101 72.4757C95.9579 71.6887 96.2333 70.9323 96.7033 70.2975C97.4964 69.311 99.2492 67.93 103.611 67.93C107.974 67.93 109.623 69.3426 110.448 70.3922C110.898 70.9695 111.173 71.662 111.241 72.3889C111.241 90.0194 111.241 142.729 111.241 142.729H115.358C115.358 142.729 115.358 90.2246 115.358 72.4915C115.338 71.9769 115.261 71.4661 115.128 70.9683C114.835 69.8766 114.354 68.8434 113.708 67.9142C112.066 65.5466 108.997 63.692 103.58 63.692C98.1626 63.692 95.0932 65.5703 93.4435 67.9142C92.7696 68.8006 92.2741 69.8082 91.9841 70.8815C91.854 71.3988 91.7743 71.9274 91.7462 72.4599C91.7462 95.3859 91.5082 140.283 91.7938 163.098C91.8861 164.933 92.5453 166.694 93.6814 168.141C95.5691 170.722 99.2334 173.184 105.697 173.666C114.652 174.258 119.482 172.143 121.957 169.096C122.913 167.887 123.597 166.488 123.963 164.993C124.055 164.688 124.095 164.371 124.082 164.053C124.788 164.527 125.613 165.111 126.557 165.695L129.032 167.218L129.151 167.336C138.105 172.616 138.668 172.261 145.64 168.741C146.433 168.394 147.29 167.952 148.233 167.455L148.352 167.336C157.426 162.183 157.426 161.591 157.783 153.739C157.783 152.949 157.902 151.979 157.902 150.803V148.932C159.157 148.452 160.228 147.59 160.963 146.47C161.756 145.33 162.204 143.988 162.256 142.603V142.564ZM136.003 109.378C136.285 109.11 136.619 108.901 136.984 108.765C137.35 108.63 137.739 108.57 138.129 108.589C138.716 108.564 139.295 108.73 139.779 109.063C140.225 109.394 140.589 109.823 140.841 110.317C141.058 110.838 141.099 111.413 140.96 111.959C140.865 112.537 140.587 113.071 140.167 113.482C139.74 113.881 139.21 114.154 138.636 114.271C138.084 114.354 137.521 114.314 136.987 114.153C136.46 113.94 136.009 113.574 135.694 113.103C135.36 112.622 135.193 112.046 135.218 111.462C135.217 110.695 135.496 109.955 136.003 109.378ZM158.433 143.266C158.332 143.843 158.055 144.375 157.64 144.789C157.209 145.183 156.681 145.455 156.109 145.578C155.557 145.662 154.994 145.621 154.46 145.46C153.931 145.242 153.478 144.875 153.159 144.403C152.828 143.92 152.664 143.344 152.691 142.761C152.683 142.02 152.968 141.306 153.484 140.772C153.965 140.314 154.587 140.03 155.25 139.966C155.913 139.901 156.579 140.06 157.14 140.417C157.588 140.761 157.949 141.204 158.195 141.711C158.46 142.185 158.532 142.742 158.393 143.266H158.433Z" fill="#009BFF"/>
    <path d="M187.637 111.612V112.78C187.538 113.755 187.498 114.736 187.518 115.716C187.288 121.343 187.169 121.69 180.213 125.675C179.269 126.149 178.445 126.614 177.62 126.969C172.678 129.55 172.203 129.661 165.366 125.794L162.891 124.152C158.18 121.106 157.831 120.869 157.831 112.898C157.831 111.959 157.95 111.02 157.95 110.081C157.95 109.142 158.061 108.676 158.061 107.974C156.981 108.229 155.867 108.309 154.761 108.21C154.413 108.21 154.056 108.092 153.707 108.092C153.704 108.644 153.645 109.194 153.532 109.734C153.532 110.523 153.413 111.375 153.413 112.661V112.78C153.413 117.349 153.532 119.93 154.206 121.808C152.264 122.405 150.4 123.232 148.654 124.27C147.861 124.626 147.005 125.06 146.061 125.557L145.942 125.675C136.868 130.837 136.868 131.421 136.519 139.281C136.519 140.07 136.4 140.922 136.4 142.209V142.446L136.519 146.549C134.986 147.118 133.695 148.193 132.863 149.596C132.082 150.984 131.802 152.596 132.07 154.165C132.358 155.734 133.203 157.148 134.449 158.15C135.715 159.171 137.302 159.713 138.93 159.681C140.536 159.691 142.088 159.106 143.285 158.04C144.497 156.979 145.292 155.525 145.529 153.936C145.754 152.348 145.42 150.731 144.586 149.359C143.751 147.961 142.393 146.951 140.81 146.549V146.431L140.699 142.485C140.792 141.509 140.829 140.529 140.81 139.549C141.048 133.922 141.167 133.575 148.115 129.59C149.059 129.116 149.884 128.65 150.709 128.295C155.658 125.715 156.134 125.486 162.963 129.471L165.437 131.113C170.156 134.159 170.505 134.396 170.505 142.367C170.505 143.306 170.386 144.245 170.386 145.176C170.156 150.803 170.037 151.158 163.082 155.144L162.138 155.617C162.055 157.446 161.737 159.258 161.194 161.007L165.207 159.011H165.318C174.392 153.857 174.392 153.265 174.749 145.413C174.749 144.624 174.868 143.771 174.868 142.485V142.367C174.868 137.789 174.749 135.217 174.074 133.338C176.017 132.74 177.88 131.913 179.626 130.876C180.419 130.521 181.276 130.087 182.22 129.59L182.339 129.471C191.412 124.31 191.412 123.726 191.761 115.984C191.761 115.195 191.88 114.342 191.88 113.056L191.999 107.532C190.874 109.203 189.383 110.598 187.637 111.612ZM140.747 150.764C141.006 151.027 141.209 151.339 141.346 151.682C141.482 152.025 141.548 152.392 141.54 152.76C141.566 153.345 141.399 153.921 141.064 154.402C140.719 154.847 140.277 155.209 139.771 155.459C139.247 155.666 138.671 155.707 138.121 155.578C137.541 155.481 137.005 155.205 136.591 154.788C136.168 154.376 135.89 153.839 135.798 153.257C135.716 152.709 135.754 152.149 135.909 151.616C136.13 151.094 136.5 150.647 136.971 150.33C137.456 150 138.035 149.836 138.621 149.864C139.403 149.921 140.143 150.238 140.723 150.764H140.747Z" fill="#009BFF"/>
    <path d="M66.7266 110.079H66.8442L66.7266 109.97V110.079Z" fill="#009BFF"/>
    <path d="M43.9812 155.576C37.0254 151.583 37.0254 151.117 36.6764 145.609C36.6764 144.82 36.5575 143.73 36.5575 142.791C36.5575 134.702 36.9064 134.465 41.6256 131.537C42.3315 131.072 43.1564 130.598 44.1002 129.896C50.9291 125.95 51.405 126.147 56.3542 128.728L58.9398 130.014C65.8956 133.96 65.8956 134.465 66.2525 139.982C66.2525 140.921 66.3635 141.852 66.3635 142.91L66.1335 152.056C66.119 152.325 66.1595 152.593 66.2525 152.846C66.3598 153.108 66.519 153.347 66.7206 153.548C66.9222 153.749 67.1622 153.907 67.4263 154.014C67.673 154.143 67.9423 154.223 68.2195 154.25C68.4892 154.265 68.7591 154.225 69.0126 154.132C69.2736 154.019 69.5126 153.862 69.7185 153.666C69.9153 153.46 70.0761 153.223 70.1944 152.964C70.3054 152.727 70.3054 152.372 70.4244 152.175L70.6623 142.91V142.673C70.5699 141.7 70.5302 140.722 70.5434 139.745C70.1944 132.011 70.1944 131.419 61.1209 126.147L61.0019 126.029C60.0581 125.555 59.2332 125.09 58.4084 124.735C56.6343 123.753 54.7764 122.929 52.8564 122.272C53.5623 120.402 53.6496 117.821 53.6496 113.252V113.134C53.5573 112.158 53.5176 111.178 53.5306 110.198C53.5318 109.971 53.4793 109.747 53.3774 109.544C53.2754 109.341 53.1268 109.165 52.9437 109.03C52.6176 108.72 52.2062 108.514 51.7619 108.438H51.056C50.8145 108.419 50.5721 108.46 50.3501 108.556C50.0881 108.671 49.849 108.831 49.6442 109.03C49.4492 109.192 49.2875 109.39 49.1683 109.614C49.0713 109.835 49.0305 110.076 49.0494 110.316V110.435C49.0494 111.224 49.1683 112.313 49.1683 113.252C49.1683 121.341 48.8194 121.57 44.1002 124.506C43.3943 124.971 42.5694 125.445 41.6256 126.147C34.7967 130.093 34.3208 129.896 29.3716 127.315L26.786 126.029C19.8302 122.083 19.8302 121.57 19.5923 116.061C19.5923 115.122 19.4812 114.183 19.4812 113.134V111.942C17.7175 110.849 16.1933 109.413 15 107.72L15.119 113.244C15.2114 114.217 15.2511 115.195 15.2379 116.172C15.5869 123.906 15.7059 124.498 24.6604 129.77L24.7794 129.888C25.7232 130.362 26.5481 130.827 27.3729 131.182C29.1201 132.215 30.9836 133.039 32.9249 133.637C32.219 135.515 32.1318 138.096 32.1318 142.665V142.783C32.224 143.759 32.2637 144.739 32.2507 145.719C32.6076 153.453 32.6076 154.037 41.6732 159.317H41.7922L45.7975 161.314C45.1927 159.577 44.8766 157.754 44.8616 155.916L43.9812 155.576Z" fill="#009BFF"/>
    <path d="M26.6243 111.375L26.7433 111.493L35.4678 115.005L37.1175 111.059L28.6309 107.547C21.802 103.554 21.6831 103.088 21.4451 97.5798C21.4451 96.6407 21.3262 95.7016 21.3262 94.7624C21.3262 86.6732 21.6831 86.4444 26.3943 83.5086L28.8927 81.9539C30.3045 81.1647 31.6052 80.4307 32.549 79.9572C31.9542 79.3732 31.3673 78.6708 30.7803 77.9685C30.4485 77.4985 30.1817 76.9861 29.9872 76.4453C29.0434 76.9109 27.9806 77.6133 26.6878 78.3157L26.5688 78.4341C25.6249 79.026 24.9191 79.4916 24.0942 79.9572C17.4953 84.1794 17.0273 84.5345 17.0273 94.8492V94.9676C17.1196 95.9408 17.1593 96.9181 17.1463 97.8955C17.5825 105.511 17.5825 106.214 26.6243 111.375Z" fill="#009BFF"/>
    <path d="M42.4949 81.3619L49.7601 85.1106C50.2817 85.3304 50.8618 85.3721 51.4098 85.2289C51.936 85.0108 52.3857 84.6429 52.7026 84.1714C52.8405 83.9226 52.9226 83.6471 52.9431 83.3637C52.9636 83.0803 52.9222 82.7958 52.8216 82.5299C52.6048 82.0049 52.2345 81.5567 51.7587 81.2435L44.5729 77.487C37.6171 73.5016 37.6171 73.036 37.3871 67.5274C37.3871 66.7382 37.2681 65.6491 37.2681 64.71C37.2681 56.6208 37.6171 56.384 42.3363 53.4561C43.0422 52.9905 43.867 52.517 44.8109 51.8146C51.7588 47.8687 52.1157 48.066 57.0648 50.6387L59.6584 51.9646L66.9632 56.2972C67.2033 56.4413 67.4761 56.5228 67.7563 56.534H68.5495C68.7795 56.4156 69.1364 56.2972 69.3426 56.1867C69.592 56.0506 69.796 55.8448 69.9295 55.5948C70.0743 55.3559 70.1562 55.0844 70.1675 54.8056V54.0165C70.0485 53.7876 69.9295 53.4325 69.8105 53.2273C69.6744 52.9813 69.4709 52.7787 69.2236 52.6433L61.9188 48.3027L61.7999 48.1922C60.856 47.7187 60.0312 47.2531 59.2063 46.898C52.2505 43.3782 51.6636 43.0309 42.5901 48.3027L42.4711 48.4211C41.5352 49.013 40.8214 49.4786 39.9965 49.9442C33.4056 54.1664 32.9297 54.5215 32.9297 64.8363V64.9546C33.022 65.9278 33.0617 66.9052 33.0487 67.8825C33.3818 75.4982 33.3818 76.0822 42.4949 81.3619Z" fill="#009BFF"/>
    <path d="M61.4139 95.3132L58.9393 96.9468C52.1104 100.893 51.6345 100.695 46.6853 98.1148L44.2107 96.8284L37.3818 92.6063C37.1404 92.4505 36.8679 92.3487 36.5831 92.3078C36.2983 92.267 36.0079 92.288 35.7321 92.3695C35.1614 92.4991 34.6588 92.8335 34.3203 93.3086C34.1638 93.5489 34.0615 93.8201 34.0204 94.1034C33.9793 94.3868 34.0005 94.6757 34.0824 94.9502C34.2076 95.5201 34.5448 96.0219 35.0262 96.3549L41.9741 100.577L42.0931 100.695C43.0369 101.161 43.8618 101.635 44.6866 101.982C51.6345 105.502 52.2294 105.857 61.3028 100.577L61.4139 100.459C62.3577 99.8747 63.0636 99.4091 63.8885 98.9356C70.4874 94.7134 70.9632 94.3662 70.9632 84.0436V83.9331C70.871 82.9573 70.8313 81.9773 70.8443 80.9973C70.4874 73.9656 70.4874 72.7897 63.8885 68.9227C61.3028 67.3995 58.4713 65.7659 53.5222 63.059C53.2816 62.9158 53.0091 62.8344 52.729 62.8222C52.4593 62.8077 52.1895 62.848 51.9359 62.9406C51.689 63.0346 51.4524 63.1536 51.23 63.2957C50.9794 63.4267 50.7747 63.6304 50.6431 63.8797V63.9981C50.4992 64.2375 50.4174 64.5087 50.4051 64.7873C50.3906 65.0557 50.4311 65.3242 50.5241 65.5765C50.6195 65.8203 50.7363 66.0554 50.8731 66.2789C51.111 66.5156 51.23 66.7524 51.4679 66.8629C54.2915 68.5044 57.123 70.0196 59.8276 71.669C66.1727 75.3072 66.3155 75.8912 66.5455 81.2893C66.5455 82.0785 66.6644 83.1597 66.6644 84.0988C66.482 92.0302 66.133 92.259 61.4139 95.3132Z" fill="#009BFF"/>
</svg>
