<svg width="88" height="56" viewBox="0 0 88 56" fill="none" xmlns="http://www.w3.org/2000/svg">
    <path d="M1.19273 55.9959C0.980051 55.9992 0.768359 55.9664 0.56672 55.899C0.393967 55.8522 0.236383 55.7616 0.109375 55.636L0.253714 55.3246C0.374536 55.4286 0.513641 55.5096 0.664027 55.5634C0.831411 55.6325 1.0116 55.6655 1.19273 55.6602C1.33086 55.659 1.46845 55.6427 1.60304 55.6118C1.6901 55.5906 1.76697 55.5398 1.82036 55.4682C1.86494 55.4046 1.88975 55.3294 1.89172 55.2519C1.89399 55.2076 1.88662 55.1633 1.8701 55.1221C1.85359 55.0809 1.82832 55.0437 1.79604 55.0131C1.71916 54.9594 1.63839 54.9114 1.55439 54.8695C1.44667 54.8227 1.33326 54.7902 1.21706 54.7727C1.09397 54.7513 0.972972 54.7195 0.855398 54.6775C0.735386 54.629 0.615373 54.5806 0.518066 54.5338C0.421973 54.4817 0.339705 54.4076 0.278041 54.3176C0.206434 54.2117 0.172206 54.0851 0.180734 53.9577C0.183804 53.8133 0.225812 53.6723 0.302368 53.5495C0.389276 53.418 0.515923 53.3174 0.664027 53.2622C0.854165 53.1815 1.05902 53.1409 1.26571 53.1428C1.43061 53.1412 1.59477 53.1651 1.75225 53.2138C1.89981 53.252 2.03785 53.3201 2.1577 53.4139L2.01173 53.7254C1.89489 53.6481 1.76451 53.5934 1.62737 53.564C1.50229 53.5268 1.37178 53.511 1.24138 53.5172C1.10896 53.5112 0.976903 53.5354 0.855398 53.5882C0.77068 53.6225 0.69636 53.6781 0.6397 53.7496C0.594018 53.8127 0.568578 53.8881 0.56672 53.9658C0.564528 54.0105 0.572091 54.0551 0.588889 54.0966C0.605687 54.1381 0.631321 54.1755 0.664027 54.2062C0.741082 54.2588 0.821234 54.3068 0.904052 54.3499C1.00136 54.3741 1.12137 54.4209 1.24138 54.4451C1.36472 54.466 1.48581 54.4984 1.60304 54.5419C1.72491 54.5639 1.84021 54.613 1.94038 54.6855C2.04134 54.7298 2.12544 54.805 2.1804 54.9001C2.25201 55.0061 2.28624 55.1326 2.27771 55.26C2.27195 55.4054 2.23076 55.5471 2.1577 55.6731C2.07037 55.8042 1.94386 55.9047 1.79604 55.9604C1.59611 55.9872 1.39444 55.9991 1.19273 55.9959ZM5.12071 55.9959C4.91583 56.0013 4.71174 55.9684 4.51902 55.899C4.33535 55.833 4.16904 55.7265 4.03248 55.5876C3.89889 55.4629 3.79571 55.3094 3.73083 55.139C3.65214 54.957 3.61131 54.761 3.61082 54.5629C3.61399 54.3656 3.65472 54.1706 3.73083 53.9884C3.79193 53.8114 3.9001 53.6541 4.04384 53.5333C4.33635 53.256 4.72479 53.1012 5.12881 53.1008C5.33609 53.0922 5.54242 53.1332 5.7305 53.2203C5.91468 53.2861 6.08116 53.3932 6.21704 53.5333C6.35658 53.6581 6.46441 53.8141 6.53166 53.9884C6.61043 54.1701 6.65106 54.3658 6.65106 54.5637C6.65106 54.7615 6.61043 54.9573 6.53166 55.139C6.46441 55.3133 6.35658 55.4692 6.21704 55.594C6.07461 55.7256 5.90988 55.8311 5.7305 55.9055C5.53478 55.9736 5.32788 56.0043 5.12071 55.9959ZM5.12071 55.636C5.26806 55.6355 5.41435 55.611 5.55372 55.5634C5.68226 55.5215 5.79823 55.4483 5.89106 55.3504C5.98391 55.2525 6.065 55.1442 6.1327 55.0276C6.19252 54.891 6.22502 54.7441 6.22839 54.5952C6.23096 54.446 6.19818 54.2984 6.1327 54.1643C6.08352 54.033 6.00012 53.9172 5.89106 53.8286C5.78999 53.7302 5.67661 53.645 5.55372 53.5753C5.41507 53.525 5.26823 53.501 5.12071 53.5043C4.97319 53.501 4.82634 53.525 4.68769 53.5753C4.5559 53.6244 4.43952 53.7074 4.35036 53.8157C4.25631 53.9173 4.17515 54.0301 4.10871 54.1514C4.05683 54.289 4.03205 54.4353 4.03573 54.5822C4.03622 54.7294 4.06087 54.8755 4.10871 55.0147C4.16705 55.1409 4.24907 55.2548 4.35036 55.3504C4.44681 55.4442 4.56163 55.5172 4.68769 55.565C4.82568 55.6183 4.9727 55.6446 5.12071 55.6425V55.636ZM8.20211 55.9717V53.1735H8.61242V55.6183H10.1304V55.9781L8.20211 55.9717ZM12.6847 55.9959C12.5265 56.0051 12.3679 55.9823 12.2188 55.9287C12.0696 55.8752 11.933 55.7921 11.8171 55.6844C11.5998 55.4682 11.5041 55.1567 11.5041 54.7485V53.167H11.9128V54.7485C11.8915 54.9996 11.9694 55.2491 12.1301 55.444C12.2059 55.5197 12.2966 55.5792 12.3964 55.6186C12.4963 55.658 12.6033 55.6766 12.7107 55.6731C12.8171 55.6826 12.9242 55.6681 13.0242 55.6306C13.1241 55.5932 13.2143 55.5338 13.288 55.4569C13.4487 55.262 13.5267 55.0125 13.5054 54.7614V53.1799H13.8913V54.7614C13.8913 55.1696 13.794 55.4811 13.5767 55.6973C13.4565 55.8047 13.3155 55.8865 13.1624 55.9378C13.0094 55.9892 12.8474 56.0089 12.6864 55.9959H12.6847ZM16.2024 55.9717V53.5333H15.2455V53.1735H17.5825V53.5333H16.6192V55.9781L16.2024 55.9717ZM18.9967 55.9717V53.1735H19.4071V55.9781L18.9967 55.9717ZM22.4901 55.9959C22.2852 56.0012 22.0811 55.9683 21.8884 55.899C21.7043 55.8339 21.5378 55.7273 21.4019 55.5876C21.2623 55.4628 21.1545 55.3068 21.0872 55.1325C21.0085 54.9505 20.9677 54.7545 20.9672 54.5564C20.9704 54.3591 21.0111 54.1642 21.0872 53.9819C21.1545 53.8076 21.2623 53.6517 21.4019 53.5269C21.5442 53.3948 21.7089 53.2888 21.8884 53.2138C22.08 53.1379 22.2839 53.0974 22.4901 53.0944C22.8943 53.0939 23.283 53.2488 23.5751 53.5269C23.7136 53.6522 23.8208 53.8081 23.8881 53.9819C23.9668 54.1636 24.0075 54.3594 24.0075 54.5572C24.0075 54.7551 23.9668 54.9509 23.8881 55.1325C23.8208 55.3064 23.7136 55.4622 23.5751 55.5876C23.4328 55.7271 23.2628 55.8355 23.0759 55.9058C22.8891 55.9761 22.6895 56.0068 22.4901 55.9959ZM22.4901 55.636C22.638 55.6354 22.7847 55.6108 22.9247 55.5634C23.0534 55.521 23.1694 55.4472 23.262 55.3488C23.3552 55.2468 23.4358 55.1341 23.5021 55.0131C23.5625 54.8766 23.5955 54.7297 23.5994 54.5806C23.6022 54.4313 23.5688 54.2835 23.5021 54.1498C23.4526 54.0191 23.3699 53.9034 23.262 53.8141C23.1596 53.7209 23.0464 53.6402 22.9247 53.5737C22.7855 53.5236 22.6381 53.4995 22.4901 53.5027C22.3425 53.4999 22.1956 53.5245 22.0571 53.5753C21.9253 53.6244 21.8089 53.7074 21.7197 53.8157C21.6257 53.9173 21.5445 54.0301 21.4781 54.1514C21.4268 54.2891 21.4026 54.4354 21.4067 54.5822C21.4067 54.7293 21.4308 54.8754 21.4781 55.0147C21.5364 55.1409 21.6184 55.2548 21.7197 55.3504C21.8162 55.4442 21.931 55.5172 22.0571 55.565C22.1956 55.6185 22.3432 55.6448 22.4917 55.6425L22.4901 55.636ZM25.5715 55.9717V53.1735H25.9088L27.7641 55.4746H27.602V53.1735H28.0107V55.9781H27.6733L25.818 53.6769H25.9802V55.9781L25.5715 55.9717ZM30.6525 55.9959C30.4399 55.9992 30.2282 55.9664 30.0265 55.899C29.8538 55.8522 29.6962 55.7616 29.5692 55.636L29.7135 55.3246C29.8341 55.4282 29.9726 55.5091 30.1222 55.5634C30.2901 55.6326 30.4709 55.6656 30.6525 55.6602C30.7907 55.659 30.9283 55.6427 31.0629 55.6118C31.1422 55.5751 31.2154 55.5267 31.2802 55.4682C31.3248 55.4046 31.3496 55.3294 31.3515 55.2519C31.3538 55.2076 31.3464 55.1633 31.3299 55.1221C31.3134 55.0809 31.2881 55.0437 31.2559 55.0131C31.179 54.9594 31.0982 54.9114 31.0142 54.8695C30.9064 54.8229 30.793 54.7904 30.6769 54.7727C30.5538 54.7513 30.4328 54.7195 30.3152 54.6775C30.1952 54.629 30.0752 54.5806 29.9779 54.5338C29.8818 54.4817 29.7995 54.4076 29.7379 54.3176C29.6662 54.2117 29.632 54.0851 29.6405 53.9577C29.6436 53.8133 29.6856 53.6723 29.7622 53.5495C29.8488 53.4184 29.9748 53.3179 30.1222 53.2622C30.3129 53.1816 30.5183 53.1409 30.7255 53.1428C30.8904 53.1412 31.0546 53.1651 31.2121 53.2138C31.3625 53.2509 31.5034 53.3191 31.6256 53.4139L31.4797 53.7254C31.3628 53.6481 31.2324 53.5934 31.0953 53.564C30.9702 53.5268 30.8397 53.511 30.7093 53.5172C30.5795 53.5078 30.4492 53.5277 30.3282 53.5753C30.2435 53.6096 30.1691 53.6652 30.1125 53.7367C30.0668 53.7998 30.0414 53.8751 30.0395 53.9529C30.0373 53.9974 30.0447 54.0419 30.0612 54.0834C30.0777 54.1249 30.103 54.1624 30.1352 54.1933C30.213 54.2456 30.2937 54.2935 30.3768 54.337C30.4725 54.3612 30.5942 54.408 30.7142 54.4322C30.8375 54.4531 30.9586 54.4855 31.0758 54.529C31.1977 54.551 31.313 54.6001 31.4132 54.6726C31.5141 54.7169 31.5982 54.7921 31.6532 54.8872C31.7248 54.9932 31.759 55.1197 31.7505 55.2471C31.7454 55.3973 31.7024 55.5438 31.6256 55.6731C31.5383 55.8042 31.4118 55.9047 31.264 55.9604C31.0614 55.9876 30.857 55.9995 30.6525 55.9959ZM35.9298 55.9717V53.5333H34.9665V53.1735H37.3035V53.5333H36.3304V55.9781L35.9298 55.9717ZM39.9535 55.9959C39.7481 56.0011 39.5435 55.9683 39.3502 55.899C39.1663 55.8334 38.9999 55.7269 38.8637 55.5876C38.7251 55.4622 38.6179 55.3064 38.5507 55.1325C38.472 54.9505 38.4311 54.7545 38.4307 54.5564C38.4338 54.3591 38.4745 54.1642 38.5507 53.9819C38.6179 53.8081 38.7251 53.6522 38.8637 53.5269C39.0063 53.3951 39.171 53.2892 39.3502 53.2138C39.5423 53.1379 39.7468 53.0974 39.9535 53.0944C40.1608 53.0858 40.3671 53.1267 40.5552 53.2138C40.7394 53.2796 40.9059 53.3867 41.0417 53.5269C41.1808 53.6518 41.2881 53.8077 41.3547 53.9819C41.4349 54.1632 41.4763 54.3591 41.4763 54.5572C41.4763 54.7553 41.4349 54.9512 41.3547 55.1325C41.2881 55.3067 41.1808 55.4627 41.0417 55.5876C40.8996 55.7269 40.7299 55.8352 40.5433 55.9055C40.3568 55.9758 40.1576 56.0065 39.9584 55.9959H39.9535ZM39.9535 55.636C40.1009 55.6355 40.2472 55.611 40.3865 55.5634C40.5152 55.521 40.6312 55.4472 40.7239 55.3488C40.8175 55.2468 40.8987 55.1342 40.9655 55.0131C41.0246 54.8763 41.0571 54.7295 41.0612 54.5806C41.0638 54.4315 41.031 54.2839 40.9655 54.1498C40.9156 54.0189 40.8323 53.9033 40.7239 53.8141C40.6217 53.7205 40.5084 53.6398 40.3865 53.5737C40.2479 53.5234 40.101 53.4993 39.9535 53.5027C39.8055 53.4995 39.6581 53.5236 39.5189 53.5737C39.3874 53.6233 39.2711 53.7062 39.1815 53.8141C39.088 53.9158 39.0074 54.0285 38.9415 54.1498C38.8896 54.2874 38.8649 54.4337 38.8685 54.5806C38.869 54.7278 38.8937 54.8739 38.9415 55.0131C38.9998 55.1389 39.0812 55.2527 39.1815 55.3488C39.2785 55.4419 39.3932 55.5149 39.5189 55.5634C39.6594 55.6179 39.8092 55.6447 39.96 55.6425L39.9535 55.636ZM44.6762 55.9717L45.9525 53.167H46.3612L47.6392 55.9717H47.211L46.0758 53.4058H46.2379L45.1027 55.9717H44.6762ZM45.2049 55.2761L45.3265 54.9647H46.9159L47.0359 55.2761H45.2049ZM49.0372 55.9717V53.1735H49.4458V55.6183H50.9638V55.9781L49.0372 55.9717ZM52.4089 55.9717V53.1735H52.8192V55.6183H54.3372V55.9781L52.4089 55.9717ZM57.8305 55.9717V53.1735H58.9382C59.1533 53.1709 59.3668 53.2115 59.5658 53.2929C59.7316 53.3635 59.8734 53.48 59.9745 53.6285C60.0762 53.7854 60.1267 53.9697 60.1188 54.1562C60.1232 54.3423 60.0731 54.5257 59.9745 54.6839C59.879 54.8374 59.7354 54.9553 59.5658 55.0196C59.3665 55.1001 59.1533 55.1407 58.9382 55.139H58.0721L58.2635 54.9469V55.9781L57.8305 55.9717ZM58.2408 54.9647L58.0608 54.7791H58.9268C59.1336 54.803 59.3416 54.7451 59.5058 54.6177C59.5723 54.5629 59.6246 54.4929 59.6582 54.4137C59.6917 54.3345 59.7057 54.2484 59.6988 54.1627C59.7026 54.0773 59.6872 53.9922 59.6538 53.9135C59.6204 53.8348 59.5699 53.7645 59.5058 53.7076C59.3401 53.5832 59.1334 53.5255 58.9268 53.5462H58.0608L58.2538 53.3542L58.2408 54.9647ZM61.6855 55.9717V53.1735H62.7932C63.0083 53.1709 63.2218 53.2115 63.4208 53.2929C63.5865 53.3635 63.7284 53.48 63.8295 53.6285C63.9312 53.7854 63.9817 53.9697 63.9738 54.1562C63.9782 54.3423 63.9281 54.5257 63.8295 54.6839C63.734 54.8374 63.5903 54.9553 63.4208 55.0196C63.2215 55.1001 63.0082 55.1407 62.7932 55.139H61.9255L62.1185 54.9469V55.9781L61.6855 55.9717ZM63.5651 55.9717L62.8418 54.9647H63.2748L63.9982 55.9717H63.5651ZM62.0942 54.9647L61.9028 54.7727H62.7688C62.9756 54.7966 63.1836 54.7386 63.3478 54.6113C63.4173 54.5525 63.4713 54.4776 63.5049 54.3931C63.5386 54.3087 63.5509 54.2174 63.5408 54.1272C63.5446 54.0418 63.5292 53.9567 63.4958 53.878C63.4624 53.7993 63.4119 53.729 63.3478 53.6721C63.1822 53.5477 62.9754 53.49 62.7688 53.5107H61.9028L62.0942 53.3187V54.9647ZM66.872 55.9959C66.6671 56.0013 66.463 55.9684 66.2703 55.899C66.0866 55.833 65.9203 55.7265 65.7838 55.5876C65.6452 55.4622 65.538 55.3064 65.4708 55.1325C65.3921 54.9505 65.3512 54.7545 65.3507 54.5564C65.3539 54.3591 65.3946 54.1642 65.4708 53.9819C65.538 53.8081 65.6452 53.6522 65.7838 53.5269C66.0763 53.2496 66.4647 53.0947 66.8687 53.0944C67.2728 53.0947 67.6612 53.2496 67.9537 53.5269C68.0923 53.6522 68.1994 53.8081 68.2667 53.9819C68.3455 54.1636 68.3861 54.3594 68.3861 54.5572C68.3861 54.7551 68.3455 54.9509 68.2667 55.1325C68.1994 55.3064 68.0923 55.4622 67.9537 55.5876C67.8109 55.7187 67.6463 55.8241 67.4672 55.899C67.2765 55.9677 67.0747 56.0005 66.872 55.9959ZM66.872 55.636C67.0193 55.6355 67.1656 55.611 67.305 55.5634C67.434 55.5216 67.5501 55.4477 67.6423 55.3488C67.736 55.2468 67.8171 55.1342 67.884 55.0131C67.9438 54.8765 67.9763 54.7296 67.9797 54.5806C67.9822 54.4315 67.9495 54.2839 67.884 54.1498C67.8348 54.0185 67.7514 53.9027 67.6423 53.8141C67.5404 53.7207 67.4271 53.6405 67.305 53.5753C67.0242 53.4806 66.7198 53.4806 66.439 53.5753C66.3072 53.6244 66.1908 53.7074 66.1016 53.8157C66.0076 53.9173 65.9264 54.0301 65.86 54.1514C65.8081 54.289 65.7833 54.4353 65.787 54.5822C65.7875 54.7294 65.8121 54.8755 65.86 55.0147C65.9183 55.1409 66.0003 55.2548 66.1016 55.3504C66.1981 55.4442 66.3129 55.5172 66.439 55.565C66.577 55.6183 66.724 55.6446 66.872 55.6425V55.636ZM69.9534 55.9717V53.1735H71.2054C71.4684 53.1611 71.729 53.228 71.953 53.3655C72.0365 53.4254 72.1042 53.5046 72.1502 53.5962C72.1963 53.6878 72.2193 53.7892 72.2174 53.8916C72.2258 54.0263 72.1924 54.1604 72.1217 54.2756C72.0518 54.3741 71.961 54.4562 71.8557 54.5161C71.7346 54.5726 71.6034 54.6049 71.4698 54.6113L71.5427 54.4919C71.6931 54.484 71.8428 54.5169 71.9757 54.5871C72.0926 54.6396 72.193 54.7227 72.266 54.8275C72.3481 54.9471 72.3901 55.0894 72.3861 55.2342C72.3913 55.3408 72.3699 55.4469 72.3237 55.5432C72.2776 55.6396 72.2082 55.723 72.1217 55.7861C71.8806 55.9255 71.6039 55.9923 71.3254 55.9781L69.9534 55.9717ZM70.3621 55.636H71.2784C71.4547 55.6415 71.6293 55.6003 71.7844 55.5166C71.8372 55.4725 71.8797 55.4175 71.9089 55.3553C71.938 55.2931 71.9531 55.2253 71.9531 55.1567C71.9531 55.0881 71.938 55.0203 71.9089 54.9582C71.8797 54.896 71.8372 54.8409 71.7844 54.7969C71.6297 54.7121 71.4548 54.6708 71.2784 54.6775H70.3134V54.3418H71.1811C71.3513 54.3461 71.5195 54.3043 71.6676 54.2208C71.72 54.1817 71.7625 54.131 71.7918 54.0728C71.821 54.0145 71.8363 53.9503 71.8363 53.8851C71.8363 53.82 71.821 53.7557 71.7918 53.6975C71.7625 53.6392 71.72 53.5885 71.6676 53.5495C71.5202 53.4642 71.3514 53.4228 71.1811 53.43H70.3621V55.636ZM73.977 55.9717V53.1735H74.3857V55.6183H75.9005V55.9781L73.977 55.9717ZM77.7072 54.366H79.1538V54.7049H77.7072V54.366ZM77.7558 55.6118H79.3938V55.9717H77.3601V53.1735H79.3371V53.5333H77.7704L77.7558 55.6118ZM81.0318 55.9717V53.1735H81.3692L82.6228 55.2826H82.4606L83.7126 53.1735H84.05V55.9781H83.6656V53.7722H83.7613L82.6536 55.6183H82.4606L81.3513 53.7722H81.4486V55.9781L81.0318 55.9717ZM86.6708 55.9959C86.4576 55.9993 86.2453 55.9665 86.0432 55.899C85.8707 55.8515 85.7133 55.7609 85.5858 55.636L85.7302 55.3246C85.8513 55.4282 85.9903 55.5091 86.1405 55.5634C86.3084 55.6326 86.4891 55.6656 86.6708 55.6602C86.8084 55.659 86.9454 55.6428 87.0795 55.6118C87.159 55.5755 87.2324 55.5271 87.2968 55.4682C87.3421 55.405 87.367 55.3296 87.3682 55.2519C87.3708 55.2076 87.3635 55.1632 87.347 55.1219C87.3305 55.0807 87.305 55.0435 87.2725 55.0131C87.1959 54.9597 87.1157 54.9117 87.0325 54.8695C86.9246 54.8232 86.8112 54.7906 86.6951 54.7727C86.5719 54.7517 86.4509 54.7199 86.3335 54.6775C86.2118 54.629 86.0918 54.5806 85.9961 54.5338C85.8996 54.4817 85.8167 54.4076 85.7545 54.3176C85.6841 54.2112 85.6505 54.0848 85.6588 53.9577C85.6614 53.8134 85.7028 53.6724 85.7788 53.5495C85.8661 53.4184 85.9926 53.3179 86.1405 53.2622C86.3307 53.1817 86.5355 53.141 86.7421 53.1428C86.9071 53.1412 87.0712 53.1651 87.2287 53.2138C87.3774 53.2486 87.5172 53.314 87.639 53.4058L87.519 53.7173C87.2882 53.5723 87.0199 53.4977 86.747 53.5027C86.6151 53.4965 86.4835 53.5208 86.3627 53.5737C86.2775 53.608 86.2026 53.6636 86.1453 53.735C86.0996 53.7981 86.0742 53.8735 86.0723 53.9513C86.0702 53.996 86.0777 54.0406 86.0945 54.0821C86.1113 54.1236 86.137 54.161 86.1697 54.1917C86.2467 54.2443 86.3269 54.2923 86.4097 54.3353C86.507 54.3595 86.627 54.4063 86.747 54.4306C86.8704 54.4513 86.9915 54.4837 87.1087 54.5274C87.2307 54.549 87.3461 54.5981 87.446 54.671C87.5471 54.7157 87.6316 54.7908 87.6877 54.8856C87.758 54.992 87.7916 55.1184 87.7833 55.2455C87.7768 55.3892 87.7356 55.5292 87.6633 55.6538C87.576 55.7848 87.4495 55.8853 87.3017 55.941C87.0951 55.9741 86.8865 55.9924 86.6773 55.9959H86.6708Z"
          fill="white"/>
    <path d="M16.625 44.4223C16.6334 44.9759 16.5269 45.5253 16.312 46.036C16.1086 46.5236 15.8047 46.9634 15.42 47.327C15.047 47.6947 14.6066 47.9877 14.1226 48.1903C13.6192 48.401 13.0777 48.507 12.5316 48.5018H4.76758e-05V46.4362H12.5284C12.8023 46.4452 13.0745 46.3899 13.3231 46.2748C13.5619 46.1683 13.7812 46.0226 13.9718 45.844C14.1579 45.6597 14.3051 45.4402 14.4048 45.1985C14.5042 44.9456 14.559 44.6776 14.567 44.4062C14.5732 44.1338 14.5178 43.8636 14.4048 43.6154C14.2968 43.3782 14.1506 43.1601 13.9718 42.9699C13.7919 42.7784 13.5699 42.6309 13.3231 42.5391C13.0712 42.4346 12.8013 42.3798 12.5284 42.3777H4.11939C3.57382 42.3827 3.03297 42.2767 2.53004 42.0663C2.04073 41.8583 1.59217 41.5661 1.20504 41.2029C0.832525 40.8187 0.530622 40.3725 0.313053 39.8845C-0.104351 38.8622 -0.104351 37.7181 0.313053 36.6958C0.516071 36.208 0.819984 35.7681 1.20504 35.4048C1.58476 35.0264 2.03476 34.7249 2.53004 34.5173C3.03116 34.2984 3.57211 34.1841 4.11939 34.1816H15.613V36.2423H4.11939C3.84547 36.2336 3.57329 36.2889 3.32472 36.4037C3.08622 36.5117 2.86708 36.6578 2.676 36.8362C2.48235 37.0244 2.33427 37.2539 2.24298 37.5075C2.138 37.7581 2.08292 38.0267 2.0808 38.2982C2.07102 38.5709 2.12661 38.8419 2.24298 39.0889C2.34955 39.327 2.49598 39.5452 2.676 39.7344C2.86065 39.9207 3.08133 40.0678 3.32472 40.1669C3.57836 40.2656 3.84716 40.3202 4.11939 40.3283H12.5284C13.617 40.339 14.6569 40.7789 15.42 41.5515C15.8051 41.9148 16.109 42.3546 16.312 42.8425C16.5279 43.341 16.6346 43.8795 16.625 44.4223ZM32.1115 48.5228H30.068V36.223H22.77V34.1623H39.3933V36.2246H32.1115V48.5228ZM62.5411 48.5228H60.475V44.4223H48.9781V42.3858H60.4717V36.223H53.078C52.3934 36.2254 51.7162 36.3643 51.0864 36.6313C50.4727 36.8875 49.916 37.2621 49.4484 37.7334C48.9811 38.2069 48.6021 38.7593 48.3294 39.3649C48.0605 39.9942 47.9215 40.6708 47.9207 41.3546V48.5228H45.8497V41.3546C45.8422 40.7151 45.9236 40.0775 46.0913 39.4601C46.2526 38.8635 46.4954 38.2917 46.813 37.7609C47.1286 37.2356 47.5101 36.7524 47.9483 36.323C48.3852 35.893 48.87 35.514 49.3933 35.1934C50.4897 34.5562 51.7353 34.2172 53.005 34.2107H62.4503V48.5228H62.5411ZM87.9011 39.2923C87.9005 39.9763 87.7609 40.6531 87.4907 41.282C87.2392 41.8959 86.862 42.451 86.3831 42.9119C85.4094 43.8569 84.1055 44.3897 82.7454 44.3981H74.4743V42.3858H82.7454C83.1596 42.3916 83.5704 42.3097 83.9504 42.1453C84.3156 41.9918 84.6439 41.763 84.9137 41.474C85.2001 41.1927 85.4292 40.859 85.5884 40.4913C85.7468 40.1112 85.8284 39.7038 85.8284 39.2923C85.8284 38.8808 85.7468 38.4734 85.5884 38.0933C85.4345 37.7297 85.2045 37.4029 84.9137 37.1347C84.6393 36.851 84.3121 36.623 83.9504 36.4634C83.5703 36.2997 83.1595 36.2182 82.7454 36.2246H73.3163V48.5228H71.268V34.1606H82.7616C83.4488 34.1618 84.1288 34.3001 84.7613 34.5673C85.3748 34.8247 85.9313 35.1998 86.3993 35.6711C86.8704 36.1384 87.2465 36.6918 87.507 37.3009C87.7608 37.9348 87.8944 38.61 87.9011 39.2923Z"
          fill="white"/>
    <path d="M52.5365 3.16457L52.5121 3.18877L51.6688 3.69226C51.441 3.53808 51.1724 3.45442 50.8968 3.45181C50.6206 3.44679 50.3503 3.53117 50.1265 3.69226C49.9004 3.8446 49.7248 4.06018 49.6217 4.31177C49.5187 4.56336 49.4928 4.83969 49.5475 5.10587C49.6074 5.37647 49.7409 5.62545 49.9335 5.82559C50.128 6.02613 50.3811 6.16052 50.6568 6.20966C50.9234 6.25819 51.1982 6.23308 51.4515 6.13704C51.7085 6.0395 51.9277 5.86318 52.0775 5.63356C52.2296 5.40609 52.3134 5.14021 52.3191 4.86704C52.3185 4.7199 52.2939 4.57384 52.2462 4.43457L52.9938 3.9795L53.5193 3.71162C54.5313 3.18393 54.6269 3.15973 56.0249 3.95045C56.2179 4.07148 56.3866 4.1909 56.5309 4.2861C57.4943 4.909 57.5672 4.95741 57.5672 6.58727C57.5672 6.7793 57.5429 6.97134 57.5429 7.16337C57.4943 8.29297 57.4699 8.38657 56.072 9.2015L55.6276 9.44517C55.397 9.22799 55.1003 9.09342 54.7843 9.06272C54.4693 9.0445 54.1569 9.12829 53.8939 9.30155C53.6353 9.48568 53.4414 9.74587 53.3392 10.0455C53.2457 10.3531 53.2629 10.6835 53.3879 10.9798C53.5134 11.2655 53.7308 11.5017 54.0058 11.6511C54.2868 11.7976 54.611 11.8399 54.9205 11.7705C55.232 11.707 55.512 11.539 55.714 11.2946C55.9159 11.0502 56.0274 10.7443 56.0298 10.4279C56.0339 10.3555 56.0256 10.283 56.0055 10.2133L56.4628 9.97286H56.4871C58.3425 8.91748 58.3425 8.79807 58.4154 7.19242C58.4154 7.03104 58.4381 6.85676 58.4381 6.59211V6.56952C58.4381 4.43457 58.3425 4.38777 56.9931 3.52443C56.8488 3.42761 56.6801 3.3324 56.4871 3.21298L56.4628 3.18877C54.6075 2.1334 54.5167 2.18181 53.0652 2.90153C52.8965 2.97254 52.7278 3.06613 52.5365 3.16457ZM51.3801 5.13008C51.3094 5.22164 51.2184 5.29565 51.1141 5.34632C51.0071 5.38967 50.889 5.39815 50.7768 5.37052C50.6582 5.35031 50.5488 5.29392 50.4638 5.20915C50.3823 5.12193 50.3262 5.01426 50.3016 4.8977C50.2844 4.78542 50.2927 4.67072 50.326 4.56205C50.3703 4.45425 50.4459 4.36209 50.5433 4.2974C50.6424 4.2302 50.7608 4.1968 50.8806 4.20219C50.956 4.20105 51.031 4.21471 51.1011 4.2424C51.1712 4.27009 51.2352 4.31126 51.2893 4.36356C51.3423 4.4171 51.384 4.48068 51.4118 4.55053C51.4397 4.62038 51.4532 4.69509 51.4515 4.77022C51.4654 4.83184 51.4663 4.89568 51.454 4.95765C51.4417 5.01962 51.4165 5.07835 51.3801 5.13008ZM55.1865 10.5005C55.1661 10.6186 55.1095 10.7274 55.0243 10.812C54.9366 10.8931 54.8284 10.9489 54.7113 10.9734C54.5984 10.9905 54.4832 10.9822 54.3739 10.9492C54.2657 10.9057 54.1731 10.8309 54.108 10.7345C54.0409 10.6357 54.0073 10.5181 54.0123 10.3989C54.0119 10.2527 54.0676 10.1119 54.168 10.0051C54.2218 9.95239 54.2857 9.91093 54.3559 9.88321C54.4261 9.8555 54.5012 9.84208 54.5767 9.84376C54.6965 9.83836 54.8149 9.87177 54.914 9.93897C55.0078 10.004 55.0855 10.0896 55.1411 10.1891C55.1734 10.2335 55.1944 10.285 55.2023 10.3393C55.2102 10.3935 55.2048 10.4488 55.1865 10.5005Z"
          fill="white"/>
    <path d="M59.7165 10.4054C60.6798 11.0283 60.7528 11.0751 60.7528 12.7066C60.7326 12.8974 60.7244 13.0893 60.7285 13.2811C60.6798 14.4107 60.6798 14.5043 59.2575 15.3192L58.9688 15.4386C58.748 15.2 58.4491 15.0472 58.1255 15.0078C57.8073 14.9613 57.483 15.0294 57.2108 15.1998C56.9362 15.3719 56.7312 15.6347 56.6318 15.9421C56.5317 16.2476 56.5403 16.5781 56.6562 16.8781C56.78 17.1762 57.0036 17.4226 57.2891 17.5755C57.5746 17.7285 57.9045 17.7785 58.2228 17.7172C58.5389 17.6424 58.8246 17.4735 59.0418 17.2331C59.2535 16.9863 59.3651 16.6698 59.3548 16.3455V16.2261L59.6921 16.0809L59.7165 16.0583C61.5718 15.0029 61.5718 14.8835 61.6432 13.2762C61.6432 13.1149 61.6675 12.9164 61.6675 12.6775V12.6533C61.6675 10.52 61.5718 10.4716 60.2225 9.60824C60.0781 9.51303 59.9095 9.41621 59.7165 9.29679L59.6921 9.27259C59.4262 9.12897 59.2056 9.00955 59.0175 8.89014C58.9771 9.00045 58.9226 9.10512 58.8553 9.20158C58.7545 9.35337 58.6328 9.49026 58.4936 9.60824C58.6866 9.70507 58.951 9.84869 59.2413 10.0165C59.3864 10.1614 59.5456 10.2916 59.7165 10.4054ZM58.4385 16.686C58.3679 16.7771 58.2776 16.851 58.1741 16.9023C58.0632 16.9411 57.9435 16.9481 57.8288 16.9224C57.7141 16.8967 57.6089 16.8394 57.5254 16.757C57.4435 16.6701 57.3874 16.5623 57.3633 16.4456C57.3462 16.3333 57.3545 16.2186 57.3876 16.1099C57.4313 16.0027 57.5065 15.911 57.6033 15.8469C57.7021 15.7789 57.8206 15.7449 57.9406 15.7501C58.0997 15.7531 58.2531 15.81 58.3753 15.9114C58.4282 15.9653 58.4699 16.0292 58.4977 16.0993C58.5256 16.1694 58.5391 16.2443 58.5374 16.3197C58.547 16.4494 58.5121 16.5785 58.4385 16.686Z"
          fill="white"/>
    <path d="M50.6806 9.87757C50.6806 10.0389 50.6562 10.2132 50.6562 10.4763V10.5005C50.6562 12.6338 50.7519 12.6822 52.1013 13.5456C52.2456 13.6408 52.4143 13.7376 52.6073 13.857L52.6316 13.8812C54.4869 14.935 54.5777 14.8882 56.0049 14.1685C56.1671 14.0958 56.3422 14.0071 56.5352 13.9054H56.5596L58.3435 12.8016L57.8862 12.0593L56.1265 13.1373C55.9336 13.2341 55.7649 13.3293 55.6205 13.4019C54.6085 13.928 54.5129 13.9522 53.1149 13.1615L52.6089 12.8258C51.6455 12.2029 51.5726 12.1545 51.5726 10.5247C51.5726 10.3326 51.5969 10.1406 51.5969 9.94857C51.6455 8.96582 51.6455 8.77378 52.5602 8.1993C52.9949 7.93465 53.4522 7.67161 53.9096 7.40858C54.0735 7.56598 54.2733 7.68167 54.4918 7.74584C54.7107 7.81248 54.9435 7.82027 55.1664 7.76844C55.3875 7.72292 55.5941 7.62431 55.7681 7.48119C55.9435 7.33438 56.0767 7.14396 56.1541 6.9293C56.2351 6.71523 56.2678 6.48604 56.2498 6.25799C56.2281 6.03253 56.1451 5.8172 56.0098 5.6351C55.8837 5.44827 55.7088 5.29929 55.5038 5.20423C55.3051 5.09737 55.0805 5.04764 54.8551 5.06061H54.8794C54.5092 5.06151 54.1543 5.20764 53.8917 5.46727C53.7585 5.59514 53.6529 5.74864 53.5813 5.91842C53.5096 6.08821 53.4734 6.27073 53.4749 6.45487C53.4709 6.53578 53.4791 6.61683 53.4992 6.69531C52.9446 7.00676 52.5359 7.2472 52.2018 7.43762C50.7519 8.1993 50.7519 8.43813 50.6806 9.87757ZM54.3912 5.97075C54.445 5.91801 54.5089 5.87655 54.5791 5.84884C54.6493 5.82112 54.7244 5.8077 54.7999 5.80938C54.92 5.80398 55.0385 5.838 55.1373 5.9062C55.2292 5.97594 55.3036 6.06599 55.3546 6.16924C55.3988 6.27559 55.4074 6.39332 55.3789 6.50489C55.3586 6.62293 55.3019 6.73176 55.2167 6.81634C55.1291 6.89744 55.0209 6.95323 54.9037 6.97771C54.7909 6.99483 54.6756 6.98656 54.5664 6.95351C54.4582 6.91003 54.3655 6.83527 54.3004 6.73888C54.2333 6.64004 54.1998 6.52241 54.2047 6.40323C54.2157 6.24217 54.2815 6.08962 54.3912 5.97075Z"
          fill="white"/>
    <path d="M55.9521 22.5598C55.9518 22.3073 55.8853 22.0592 55.7591 21.8401C55.6249 21.6248 55.4335 21.4506 55.2061 21.3366C54.9759 21.2182 54.7164 21.1684 54.4585 21.193C54.199 21.2191 53.9503 21.3095 53.7351 21.456C53.5252 21.6055 53.3657 21.8148 53.2778 22.0563C53.183 22.2918 53.1582 22.5495 53.2064 22.7986C53.2534 23.0495 53.3703 23.2821 53.5438 23.47C53.7186 23.6623 53.9429 23.8035 54.1925 23.8782V24.0686C54.1925 24.2607 54.1682 24.4527 54.1682 24.6447C54.1195 25.7953 54.0952 25.8679 52.6745 26.6829C52.4815 26.7781 52.3128 26.8749 52.1442 26.9459C51.1322 27.4736 51.0365 27.4978 49.6385 26.7071C49.4455 26.586 49.2768 26.4666 49.1325 26.3714C48.5308 25.9874 48.2892 25.8195 48.1692 25.4839V15.1028L49.6385 15.9097C49.6184 15.9964 49.6102 16.0854 49.6142 16.1743C49.6073 16.4908 49.7189 16.7984 49.9272 17.0377C50.1309 17.2821 50.4104 17.4524 50.7219 17.5218C51.0319 17.5904 51.3563 17.5481 51.6382 17.4024C51.9217 17.2543 52.1493 17.0187 52.2869 16.7311C52.4176 16.445 52.4434 16.1224 52.3599 15.8193C52.2822 15.5083 52.0938 15.236 51.8295 15.0528C51.5734 14.8617 51.2571 14.7679 50.9376 14.7881C50.6215 14.8127 50.3197 14.9294 50.0699 15.1238L48.1675 14.07V3.18871V2.99668C48.2121 2.83724 48.3151 2.70021 48.4562 2.61261C48.7931 2.34537 49.156 2.11237 49.5396 1.9171L50.0699 1.65406C51.0868 1.1296 51.1873 1.10217 52.5837 1.89451L52.8253 2.05588C53.1431 1.88718 53.4733 1.74261 53.813 1.6234L53.5713 1.47978L53.0653 1.17479L53.0426 1.15058C51.2116 0.0726175 51.0868 0.143621 49.6693 0.863341L49.1406 1.1296L49.1163 1.15381C48.6851 1.39504 48.2672 1.65899 47.8643 1.94453C47.8156 1.99295 47.767 2.01715 47.7426 2.06556C47.6637 1.90431 47.5663 1.75268 47.4523 1.61372C46.8506 0.790723 45.79 0 43.9833 0C42.1766 0 41.0917 0.790723 40.5127 1.61372C40.3881 1.79843 40.2754 1.99085 40.1754 2.18982C40.1167 2.13023 40.0527 2.0762 39.984 2.02845C39.5999 1.71526 39.1789 1.44973 38.7303 1.23772L38.706 1.21352L38.1757 0.948868C36.755 0.230762 36.635 0.158145 34.7797 1.23772L34.7553 1.26193L34.2493 1.57338L34.0077 1.717C34.3474 1.83566 34.6775 1.97969 34.9954 2.14786L35.237 1.98649C36.635 1.17963 36.7307 1.21997 37.7427 1.74766C37.9049 1.81866 38.08 1.90903 38.273 2.0107C38.6569 2.20527 39.0199 2.43831 39.3564 2.70621C39.477 2.80501 39.5758 2.92752 39.6467 3.06607V14.1201L36.369 15.9419L36.8037 16.7101L39.6694 15.127V25.6033C39.5737 25.9632 39.3093 26.131 38.706 26.515C38.5617 26.6103 38.393 26.7071 38.2 26.8507C36.8037 27.6656 36.7063 27.6172 35.6944 27.0895C35.55 27.0185 35.3813 26.9282 35.164 26.8265C33.7433 26.0116 33.7433 25.9147 33.6947 24.7884C33.6947 24.5963 33.6704 24.4043 33.6704 24.2139L33.719 23.3263C33.722 23.2715 33.7137 23.2166 33.6947 23.165C33.6498 23.0564 33.5635 22.9699 33.4547 22.9245C33.4038 22.8996 33.3489 22.8838 33.2925 22.8777C33.2373 22.8746 33.1821 22.8829 33.1303 22.9019C33.0764 22.924 33.0274 22.9563 32.986 22.9971C32.9454 23.039 32.9124 23.0876 32.8887 23.1408C32.8622 23.1909 32.8456 23.2457 32.84 23.3021L32.793 24.2607V24.2849C32.8118 24.4844 32.82 24.6848 32.8173 24.8852C32.8887 26.4666 32.8887 26.586 34.744 27.6656L34.7683 27.6898C34.9613 27.785 35.13 27.8819 35.2986 27.9529C36.7193 28.6726 36.8393 28.7436 38.6947 27.6656L38.719 27.6414L39.225 27.33C40.0683 26.7781 40.4057 26.5635 40.5986 25.8195V4.67979L40.6943 3.36138V3.33717C40.6927 3.32403 40.694 3.31069 40.6982 3.29812C40.7024 3.28556 40.7094 3.27409 40.7187 3.26456C40.7372 3.16745 40.7616 3.07153 40.7916 2.97731C40.8791 2.66871 41.0148 2.37573 41.1938 2.10913C41.6285 1.51044 42.4232 0.863341 43.9655 0.863341C45.4591 0.863341 46.2782 1.50883 46.7355 2.13334C46.94 2.39985 47.0954 2.70036 47.1945 3.02088C47.2141 3.10165 47.238 3.18137 47.2658 3.25972L47.2853 25.6727V25.7211C47.2853 25.7679 47.2853 25.8195 47.2853 25.8437V26.7781V26.8023C47.2873 26.8513 47.279 26.9002 47.261 26.9459C47.2263 27.1216 47.152 27.2871 47.0436 27.43C46.7793 27.7657 46.1046 28.1739 44.4488 28.0545C43.3135 27.9819 42.8351 27.5704 42.6178 27.2864C42.5425 27.1973 42.4847 27.095 42.4475 26.9846C42.4239 26.9035 42.4082 26.8203 42.4005 26.7361C42.3599 22.1757 42.3859 12.8581 42.3859 8.22836C42.3956 8.06744 42.4519 7.91277 42.548 7.78297C42.7102 7.58126 43.0686 7.29886 43.9606 7.29886C44.8526 7.29886 45.1899 7.58771 45.3586 7.80234C45.4505 7.92038 45.5067 8.06198 45.5208 8.21061C45.5208 11.8157 45.5208 22.5937 45.5208 22.5937H46.3625C46.3625 22.5937 46.3625 11.8576 46.3625 8.23159C46.3584 8.12637 46.3426 8.02192 46.3155 7.92014C46.2555 7.69691 46.1573 7.48564 46.0252 7.29563C45.6894 6.81151 45.0618 6.43229 43.9541 6.43229C42.8464 6.43229 42.2188 6.81636 41.8815 7.29563C41.7437 7.47689 41.6424 7.68291 41.5831 7.90239C41.5565 8.00817 41.5402 8.11625 41.5344 8.22513C41.5344 12.913 41.4858 22.0935 41.5441 26.7587C41.563 27.1338 41.6978 27.4939 41.9301 27.7899C42.3161 28.3176 43.0654 28.8211 44.3871 28.9195C46.2181 29.0405 47.2058 28.608 47.7118 27.9851C47.9073 27.7379 48.0472 27.4517 48.1221 27.146C48.1408 27.0838 48.149 27.0189 48.1465 26.954C48.2908 27.0508 48.4595 27.1702 48.6524 27.2896L49.1584 27.6011L49.1828 27.6253C51.0138 28.7049 51.1289 28.6322 52.5545 27.9125C52.7167 27.8415 52.8918 27.7512 53.0848 27.6495L53.1091 27.6253C54.9645 26.5715 54.9645 26.4505 55.0374 24.8448C55.0374 24.6835 55.0618 24.485 55.0618 24.2445V23.8621C55.3184 23.7638 55.5374 23.5876 55.6878 23.3586C55.8498 23.1255 55.9415 22.8511 55.9521 22.5679V22.5598ZM50.584 15.7741C50.6416 15.7192 50.7098 15.6765 50.7846 15.6488C50.8593 15.621 50.939 15.6088 51.0186 15.6127C51.1387 15.6076 51.2571 15.6416 51.356 15.7096C51.4473 15.7773 51.5216 15.8651 51.5733 15.9662C51.6175 16.0725 51.6261 16.1902 51.5976 16.3018C51.578 16.4201 51.5213 16.5291 51.4354 16.6133C51.3481 16.6948 51.2397 16.7506 51.1224 16.7746C51.0096 16.7916 50.8944 16.7833 50.7851 16.7504C50.6773 16.7069 50.5852 16.6321 50.5208 16.5358C50.4524 16.4374 50.4183 16.3196 50.4234 16.2001C50.4232 16.0435 50.4803 15.892 50.584 15.7741ZM55.1704 22.7034C55.1498 22.8214 55.0932 22.9301 55.0082 23.0149C54.9202 23.0954 54.8121 23.1511 54.6952 23.1763C54.5824 23.1933 54.4671 23.185 54.3579 23.1521C54.2498 23.1075 54.1573 23.0323 54.0919 22.9358C54.0244 22.8372 53.9908 22.7194 53.9962 22.6002C53.9946 22.4487 54.0529 22.3027 54.1584 22.1935C54.2569 22.0998 54.3841 22.0418 54.5196 22.0286C54.6552 22.0154 54.7913 22.0479 54.9061 22.1209C54.9976 22.1913 55.0715 22.2819 55.1218 22.3855C55.176 22.4823 55.1906 22.5962 55.1623 22.7034H55.1704Z"
          fill="white"/>
    <path d="M61.1423 16.2308V16.4696C61.1221 16.669 61.1139 16.8695 61.118 17.0699C61.0709 18.2205 61.0466 18.2915 59.6243 19.1064C59.4313 19.2033 59.2626 19.2985 59.094 19.3711C58.0836 19.8988 57.9863 19.9214 56.5883 19.1306L56.0823 18.795C55.119 18.1721 55.0476 18.1237 55.0476 16.4938C55.0476 16.3018 55.0719 16.1097 55.0719 15.9177C55.0719 15.7257 55.0946 15.6305 55.0946 15.4869C54.8738 15.539 54.646 15.5554 54.42 15.5353C54.3486 15.5353 54.2756 15.5111 54.2043 15.5111C54.2037 15.6238 54.1918 15.7363 54.1686 15.8467C54.1686 16.0081 54.1443 16.1824 54.1443 16.4454V16.4696C54.1443 17.404 54.1686 17.9316 54.3065 18.3157C53.9092 18.4378 53.5281 18.6069 53.1712 18.8192C53.009 18.8918 52.8339 18.9806 52.6409 19.0822L52.6165 19.1064C50.7612 20.1618 50.7612 20.2812 50.6899 21.8885C50.6899 22.0499 50.6655 22.2241 50.6655 22.4872V22.5356L50.6899 23.3747C50.3763 23.4909 50.1123 23.7108 49.9422 23.9976C49.7824 24.2815 49.7252 24.6112 49.78 24.932C49.8391 25.2528 50.0117 25.5419 50.2666 25.7469C50.5253 25.9556 50.8499 26.0665 51.1829 26.0599C51.5112 26.0619 51.8286 25.9422 52.0732 25.7243C52.3211 25.5074 52.4837 25.2101 52.5322 24.8852C52.5781 24.5604 52.5099 24.2298 52.3392 23.9492C52.1686 23.6635 51.8909 23.4568 51.5673 23.3747V23.3505L51.5445 22.5437C51.5635 22.3441 51.571 22.1437 51.5673 21.9433C51.6159 20.7928 51.6402 20.7218 53.0609 19.9068C53.2539 19.81 53.4226 19.7148 53.5912 19.6422C54.6032 19.1145 54.7006 19.0677 56.0969 19.8826L56.6029 20.2183C57.5679 20.8412 57.6392 20.8896 57.6392 22.5194C57.6392 22.7115 57.6149 22.9035 57.6149 23.0939C57.5679 24.2445 57.5435 24.3171 56.1212 25.1321L55.9282 25.2289C55.9113 25.6029 55.8464 25.9733 55.7353 26.3311L56.5559 25.9228H56.5786C58.4339 24.869 58.4339 24.748 58.5069 23.1423C58.5069 22.981 58.5312 22.8067 58.5312 22.5437V22.5194C58.5312 21.5835 58.5069 21.0574 58.369 20.6733C58.7662 20.5509 59.1473 20.3819 59.5043 20.1699C59.6665 20.0973 59.8416 20.0085 60.0346 19.9068L60.0589 19.8826C61.9143 18.8273 61.9143 18.7078 61.9856 17.1248C61.9856 16.9634 62.01 16.7891 62.01 16.5261L62.0343 15.3965C61.8043 15.7382 61.4993 16.0235 61.1423 16.2308ZM51.5543 24.2364C51.6073 24.2903 51.6489 24.3542 51.6767 24.4243C51.7046 24.4944 51.7181 24.5693 51.7165 24.6447C51.7219 24.7642 51.6877 24.8821 51.6191 24.9804C51.5486 25.0714 51.4582 25.1453 51.3548 25.1966C51.2475 25.2389 51.1297 25.2474 51.0175 25.2208C50.8987 25.201 50.7892 25.1446 50.7045 25.0594C50.6181 24.9751 50.5612 24.8653 50.5423 24.7464C50.5256 24.6342 50.5333 24.5197 50.565 24.4107C50.6103 24.304 50.6858 24.2126 50.7823 24.1477C50.8813 24.0803 50.9998 24.0469 51.1196 24.0525C51.2795 24.0642 51.4309 24.129 51.5494 24.2364H51.5543Z"
          fill="white"/>
    <path d="M36.418 15.9176H36.4423L36.418 15.895V15.9176Z" fill="white"/>
    <path d="M31.7678 25.2207C30.3455 24.4041 30.3455 24.3089 30.2741 23.1825C30.2741 23.0212 30.2498 22.7985 30.2498 22.6064C30.2498 20.9524 30.3212 20.904 31.2861 20.3053C31.4305 20.2101 31.5992 20.1132 31.7921 19.9696C33.1885 19.1628 33.2858 19.2031 34.2978 19.7308L34.8265 19.9938C36.2488 20.8007 36.2488 20.904 36.3218 22.0319C36.3218 22.224 36.3445 22.4144 36.3445 22.6306L36.2975 24.5009C36.2945 24.5558 36.3028 24.6107 36.3218 24.6623C36.3437 24.7161 36.3763 24.7649 36.4175 24.8059C36.4587 24.8469 36.5078 24.8793 36.5618 24.9011C36.6123 24.9275 36.6673 24.9439 36.724 24.9496C36.7792 24.9525 36.8343 24.9443 36.8862 24.9253C36.9396 24.9023 36.9884 24.8701 37.0305 24.8301C37.0708 24.788 37.1036 24.7394 37.1278 24.6865C37.1505 24.6381 37.1505 24.5655 37.1749 24.5251L37.2235 22.6306V22.5822C37.2046 22.3832 37.1965 22.1834 37.1992 21.9835C37.1278 20.4021 37.1278 20.2811 35.2725 19.2031L35.2482 19.1789C35.0552 19.0821 34.8865 18.9869 34.7179 18.9142C34.3551 18.7134 33.9752 18.545 33.5826 18.4108C33.7269 18.0283 33.7448 17.5006 33.7448 16.5663V16.5421C33.7259 16.3425 33.7178 16.1422 33.7205 15.9418C33.7207 15.8954 33.71 15.8496 33.6891 15.8081C33.6683 15.7666 33.6379 15.7306 33.6004 15.7029C33.5338 15.6396 33.4496 15.5975 33.3588 15.5819H33.2145C33.1651 15.5781 33.1155 15.5864 33.0701 15.6061C33.0165 15.6295 32.9676 15.6623 32.9258 15.7029C32.8859 15.7361 32.8528 15.7767 32.8285 15.8224C32.8086 15.8675 32.8003 15.9168 32.8041 15.966V15.9902C32.8041 16.1515 32.8285 16.3742 32.8285 16.5663C32.8285 18.2203 32.7571 18.2671 31.7921 18.8674C31.6478 18.9627 31.4791 19.0595 31.2861 19.2031C29.8898 20.01 29.7925 19.9696 28.7805 19.4419L28.2518 19.1789C26.8295 18.372 26.8295 18.2671 26.7808 17.1408C26.7808 16.9487 26.7581 16.7567 26.7581 16.5421V16.2984C26.3975 16.0748 26.0858 15.7812 25.8418 15.4351L25.8661 16.5647C25.885 16.7636 25.8931 16.9635 25.8905 17.1634C25.9618 18.7448 25.9861 18.8658 27.8171 19.9438L27.8415 19.968C28.0345 20.0648 28.2031 20.16 28.3718 20.2326C28.729 20.4438 29.1101 20.6123 29.507 20.7345C29.3627 21.1186 29.3449 21.6463 29.3449 22.5806V22.6048C29.3637 22.8043 29.3719 23.0047 29.3692 23.2051C29.4422 24.7866 29.4422 24.906 31.2959 25.9856H31.3202L32.1392 26.3938C32.0155 26.0387 31.9509 25.6659 31.9478 25.29L31.7678 25.2207Z"
          fill="white"/>
    <path d="M28.2182 16.1824L28.2426 16.2066L30.0265 16.9247L30.3639 16.1178L28.6285 15.3997C27.2322 14.5832 27.2079 14.488 27.1592 13.3616C27.1592 13.1696 27.1349 12.9775 27.1349 12.7855C27.1349 11.1314 27.2079 11.0846 28.1712 10.4843L28.6821 10.1664C28.9707 10.005 29.2367 9.85497 29.4297 9.75814C29.3081 9.63873 29.1881 9.49511 29.068 9.35149C29.0002 9.25538 28.9456 9.15063 28.9059 9.04004C28.7129 9.13525 28.4956 9.27887 28.2312 9.42249L28.2069 9.4467C28.0139 9.56773 27.8695 9.66294 27.7009 9.75814C26.3515 10.6215 26.2559 10.6941 26.2559 12.8032V12.8274C26.2747 13.0264 26.2828 13.2263 26.2802 13.4261C26.3694 14.9834 26.3694 15.127 28.2182 16.1824Z"
          fill="white"/>
    <path d="M31.4637 10.0454L32.9493 10.8119C33.0559 10.8569 33.1745 10.8654 33.2866 10.8361C33.3942 10.7915 33.4861 10.7163 33.5509 10.6199C33.5791 10.569 33.5959 10.5127 33.6001 10.4547C33.6043 10.3968 33.5958 10.3386 33.5753 10.2842C33.5309 10.1769 33.4552 10.0852 33.3579 10.0212L31.8886 9.25308C30.4663 8.43815 30.4663 8.34294 30.4193 7.21656C30.4193 7.05519 30.3949 6.8325 30.3949 6.64046C30.3949 4.9864 30.4663 4.93799 31.4313 4.3393C31.5756 4.24409 31.7443 4.14726 31.9373 4.00364C33.3579 3.19678 33.4309 3.23713 34.4429 3.7632L34.9732 4.0343L36.4669 4.92024C36.516 4.9497 36.5718 4.96635 36.6291 4.96865H36.7913C36.8383 4.94444 36.9113 4.92024 36.9534 4.89764C37.0045 4.8698 37.0462 4.82774 37.0735 4.77662C37.1031 4.72776 37.1198 4.67225 37.1221 4.61524V4.45387C37.0978 4.40707 37.0735 4.33446 37.0491 4.2925C37.0213 4.24219 36.9797 4.20078 36.9291 4.17308L35.4355 3.28554L35.4111 3.26295C35.2181 3.16612 35.0495 3.07091 34.8808 2.99829C33.4585 2.27858 33.3385 2.20757 31.4832 3.28554L31.4588 3.30974C31.2675 3.43077 31.1215 3.52598 30.9528 3.62119C29.6051 4.48453 29.5078 4.55715 29.5078 6.66628V6.69049C29.5267 6.88947 29.5348 7.08933 29.5321 7.28918C29.6003 8.84642 29.6003 8.96583 31.4637 10.0454Z"
          fill="white"/>
    <path d="M35.3321 12.8982L34.8261 13.2322C33.4297 14.0391 33.3324 13.9987 32.3204 13.4711L31.8144 13.208L30.4181 12.3447C30.3687 12.3128 30.313 12.292 30.2547 12.2837C30.1965 12.2753 30.1371 12.2796 30.0807 12.2963C29.9641 12.3228 29.8613 12.3911 29.7921 12.4883C29.7601 12.5374 29.7391 12.5929 29.7307 12.6508C29.7223 12.7088 29.7267 12.7678 29.7434 12.824C29.769 12.9405 29.838 13.0431 29.9364 13.1112L31.3571 13.9745L31.3814 13.9987C31.5744 14.0939 31.7431 14.1908 31.9117 14.2618C33.3324 14.9815 33.4541 15.0541 35.3094 13.9745L35.3321 13.9503C35.5251 13.8309 35.6694 13.7357 35.8381 13.6389C37.1874 12.7755 37.2847 12.7045 37.2847 10.5938V10.5712C37.2659 10.3717 37.2577 10.1713 37.2604 9.97089C37.1874 8.53307 37.1874 8.29262 35.8381 7.5019C35.3094 7.19045 34.7304 6.85641 33.7184 6.30291C33.6692 6.27363 33.6135 6.257 33.5562 6.2545C33.5011 6.25153 33.4459 6.25977 33.3941 6.2787C33.3436 6.29792 33.2952 6.32225 33.2497 6.35132C33.1985 6.3781 33.1566 6.41974 33.1297 6.47073V6.49494C33.1003 6.54388 33.0836 6.59934 33.0811 6.65631C33.0781 6.71119 33.0864 6.76609 33.1054 6.81768C33.1249 6.86754 33.1488 6.9156 33.1767 6.9613C33.2254 7.00972 33.2497 7.05813 33.2984 7.08072C33.8757 7.41637 34.4547 7.72621 35.0077 8.06348C36.3052 8.8074 36.3344 8.92682 36.3814 10.0306C36.3814 10.192 36.4057 10.4131 36.4057 10.6051C36.3684 12.2269 36.2971 12.2737 35.3321 12.8982Z"
          fill="white"/>
</svg>
