<svg width="1328" height="35" viewBox="0 0 1328 35" fill="none" xmlns="http://www.w3.org/2000/svg">
<path d="M0.333333 31.5C0.333333 32.9728 1.52724 34.1667 3 34.1667C4.47276 34.1667 5.66667 32.9728 5.66667 31.5C5.66667 30.0272 4.47276 28.8333 3 28.8333C1.52724 28.8333 0.333333 30.0272 0.333333 31.5ZM695.5 31.5V32H695.696L695.84 31.867L695.5 31.5ZM729 0.5V0H728.804L728.66 0.133019L729 0.5ZM3 32H695.5V31H3V32ZM695.84 31.867L729.34 0.866981L728.66 0.133019L695.16 31.133L695.84 31.867ZM729 1H1414V0H729V1Z" fill="#2C76A8"/>
</svg>
