<svg width="1346" height="35" viewBox="0 0 1346 35" fill="none" xmlns="http://www.w3.org/2000/svg">
<path d="M0.333333 31.5C0.333333 32.9728 1.52724 34.1667 3 34.1667C4.47276 34.1667 5.66667 32.9728 5.66667 31.5C5.66667 30.0272 4.47276 28.8333 3 28.8333C1.52724 28.8333 0.333333 30.0272 0.333333 31.5ZM757.5 31.5V32H757.696L757.84 31.867L757.5 31.5ZM791 0.5V0H790.804L790.66 0.133019L791 0.5ZM3 32H757.5V31H3V32ZM757.84 31.867L791.34 0.866981L790.66 0.133019L757.16 31.133L757.84 31.867ZM791 1H1414V0H791V1Z" fill="#2C76A8"/>
</svg>
