<svg width="30" height="373" viewBox="0 0 30 373" fill="none" xmlns="http://www.w3.org/2000/svg">
<path d="M1.59766 0L1.59766 373" stroke="#4C7FF0" stroke-width="1.68" stroke-miterlimit="10"/>
<path d="M29.9558 38.8506H1" stroke="#4C7FF0" stroke-width="1.68" stroke-miterlimit="10"/>
<path d="M29.1621 138.644H1.79297" stroke="#4C7FF0" stroke-width="1.68" stroke-miterlimit="10"/>
<path d="M29.162 238.439H1" stroke="#4C7FF0" stroke-width="1.68" stroke-miterlimit="10"/>
<path d="M28.3682 336.707H1.39648" stroke="#4C7FF0" stroke-width="1.68" stroke-miterlimit="10"/>
<path d="M1.39648 52.3721L17.6099 52.3721" stroke="#4C7FF0" stroke-width="0.827" stroke-miterlimit="10"/>
<path d="M1.39648 61.5142L17.6099 61.5142" stroke="#4C7FF0" stroke-width="0.827" stroke-miterlimit="10"/>
<path d="M1.39648 70.6558H17.6099" stroke="#4C7FF0" stroke-width="0.827" stroke-miterlimit="10"/>
<path d="M1.39648 79.7954H17.6099" stroke="#4C7FF0" stroke-width="0.827" stroke-miterlimit="10"/>
<path d="M1.39648 88.937H17.6099" stroke="#4C7FF0" stroke-width="0.827" stroke-miterlimit="10"/>
<path d="M1.39648 98.0801H17.6099" stroke="#4C7FF0" stroke-width="0.827" stroke-miterlimit="10"/>
<path d="M1.39648 107.22H17.6099" stroke="#4C7FF0" stroke-width="0.827" stroke-miterlimit="10"/>
<path d="M1.39648 116.362H17.6099" stroke="#4C7FF0" stroke-width="0.827" stroke-miterlimit="10"/>
<path d="M1.39648 125.504H17.6099" stroke="#4C7FF0" stroke-width="0.827" stroke-miterlimit="10"/>
<path d="M1.79297 151.022H18.0064" stroke="#4C7FF0" stroke-width="0.827" stroke-miterlimit="10"/>
<path d="M1.79297 160.164H18.0064" stroke="#4C7FF0" stroke-width="0.827" stroke-miterlimit="10"/>
<path d="M1.79297 169.304H18.0064" stroke="#4C7FF0" stroke-width="0.827" stroke-miterlimit="10"/>
<path d="M1.79297 178.447H18.0064" stroke="#4C7FF0" stroke-width="0.827" stroke-miterlimit="10"/>
<path d="M1.79297 187.588H18.0064" stroke="#4C7FF0" stroke-width="0.827" stroke-miterlimit="10"/>
<path d="M1.79297 196.729H18.0064" stroke="#4C7FF0" stroke-width="0.827" stroke-miterlimit="10"/>
<path d="M1.79297 205.87H18.0064" stroke="#4C7FF0" stroke-width="0.827" stroke-miterlimit="10"/>
<path d="M1.79297 215.013H18.0064" stroke="#4C7FF0" stroke-width="0.827" stroke-miterlimit="10"/>
<path d="M1.79297 224.154H18.0064" stroke="#4C7FF0" stroke-width="0.827" stroke-miterlimit="10"/>
<path d="M2.18945 249.674H18.4029" stroke="#4C7FF0" stroke-width="0.827" stroke-miterlimit="10"/>
<path d="M2.18945 258.815H18.4029" stroke="#4C7FF0" stroke-width="0.827" stroke-miterlimit="10"/>
<path d="M2.18945 267.956H18.4029" stroke="#4C7FF0" stroke-width="0.827" stroke-miterlimit="10"/>
<path d="M2.18945 277.098H18.4029" stroke="#4C7FF0" stroke-width="0.827" stroke-miterlimit="10"/>
<path d="M2.18945 286.24H18.4029" stroke="#4C7FF0" stroke-width="0.827" stroke-miterlimit="10"/>
<path d="M2.18945 295.381H18.4029" stroke="#4C7FF0" stroke-width="0.827" stroke-miterlimit="10"/>
<path d="M2.18945 304.521H18.4029" stroke="#4C7FF0" stroke-width="0.827" stroke-miterlimit="10"/>
<path d="M2.18945 313.664H18.4029" stroke="#4C7FF0" stroke-width="0.827" stroke-miterlimit="10"/>
<path d="M2.18945 322.805H18.4029" stroke="#4C7FF0" stroke-width="0.827" stroke-miterlimit="10"/>
</svg>
