<svg width="60" height="391" viewBox="0 0 60 391" fill="none" xmlns="http://www.w3.org/2000/svg">
<path d="M2 0L2 391" stroke="#4C7FF0" stroke-width="1.68" stroke-miterlimit="10"/>
<path d="M59.0915 40.7246L0.796875 40.7246" stroke="#4C7FF0" stroke-width="1.68" stroke-miterlimit="10"/>
<path d="M57.4948 145.334H2.39453" stroke="#4C7FF0" stroke-width="1.68" stroke-miterlimit="10"/>
<path d="M57.4952 249.945H0.798828" stroke="#4C7FF0" stroke-width="1.68" stroke-miterlimit="10"/>
<path d="M55.8958 352.956H1.5957" stroke="#4C7FF0" stroke-width="1.68" stroke-miterlimit="10"/>
<path d="M1.5957 54.8994L34.2369 54.8994" stroke="#4C7FF0" stroke-width="0.827" stroke-miterlimit="10"/>
<path d="M1.5957 64.4824H34.2369" stroke="#4C7FF0" stroke-width="0.827" stroke-miterlimit="10"/>
<path d="M1.5957 74.0654H34.2369" stroke="#4C7FF0" stroke-width="0.827" stroke-miterlimit="10"/>
<path d="M1.5957 83.6465H34.2369" stroke="#4C7FF0" stroke-width="0.827" stroke-miterlimit="10"/>
<path d="M1.5957 93.229H34.2369" stroke="#4C7FF0" stroke-width="0.827" stroke-miterlimit="10"/>
<path d="M1.5957 102.812H34.2369" stroke="#4C7FF0" stroke-width="0.827" stroke-miterlimit="10"/>
<path d="M1.5957 112.394H34.2369" stroke="#4C7FF0" stroke-width="0.827" stroke-miterlimit="10"/>
<path d="M1.5957 121.977H34.2369" stroke="#4C7FF0" stroke-width="0.827" stroke-miterlimit="10"/>
<path d="M1.5957 131.56H34.2369" stroke="#4C7FF0" stroke-width="0.827" stroke-miterlimit="10"/>
<path d="M2.39453 158.311H35.0357" stroke="#4C7FF0" stroke-width="0.827" stroke-miterlimit="10"/>
<path d="M2.39453 167.894H35.0357" stroke="#4C7FF0" stroke-width="0.827" stroke-miterlimit="10"/>
<path d="M2.39453 177.475H35.0357" stroke="#4C7FF0" stroke-width="0.827" stroke-miterlimit="10"/>
<path d="M2.39453 187.059H35.0357" stroke="#4C7FF0" stroke-width="0.827" stroke-miterlimit="10"/>
<path d="M2.39453 196.641H35.0357" stroke="#4C7FF0" stroke-width="0.827" stroke-miterlimit="10"/>
<path d="M2.39453 206.223H35.0357" stroke="#4C7FF0" stroke-width="0.827" stroke-miterlimit="10"/>
<path d="M2.39453 215.805H35.0357" stroke="#4C7FF0" stroke-width="0.827" stroke-miterlimit="10"/>
<path d="M2.39453 225.389H35.0357" stroke="#4C7FF0" stroke-width="0.827" stroke-miterlimit="10"/>
<path d="M2.39453 234.971H35.0357" stroke="#4C7FF0" stroke-width="0.827" stroke-miterlimit="10"/>
<path d="M3.19141 261.722H35.8327" stroke="#4C7FF0" stroke-width="0.827" stroke-miterlimit="10"/>
<path d="M3.19141 271.306H35.8327" stroke="#4C7FF0" stroke-width="0.827" stroke-miterlimit="10"/>
<path d="M3.19141 280.887H35.8327" stroke="#4C7FF0" stroke-width="0.827" stroke-miterlimit="10"/>
<path d="M3.19141 290.47H35.8327" stroke="#4C7FF0" stroke-width="0.827" stroke-miterlimit="10"/>
<path d="M3.19141 300.053H35.8327" stroke="#4C7FF0" stroke-width="0.827" stroke-miterlimit="10"/>
<path d="M3.19141 309.636H35.8327" stroke="#4C7FF0" stroke-width="0.827" stroke-miterlimit="10"/>
<path d="M3.19141 319.217H35.8327" stroke="#4C7FF0" stroke-width="0.827" stroke-miterlimit="10"/>
<path d="M3.19141 328.801H35.8327" stroke="#4C7FF0" stroke-width="0.827" stroke-miterlimit="10"/>
<path d="M3.19141 338.383H35.8327" stroke="#4C7FF0" stroke-width="0.827" stroke-miterlimit="10"/>
</svg>
