<svg width="115" height="109" viewBox="0 0 115 109" fill="none" xmlns="http://www.w3.org/2000/svg">
    <path fill-rule="evenodd" clip-rule="evenodd"
          d="M114 64.3083C114 74.4133 114 84.5195 114 94.6245C105.203 98.2226 97.1962 102.619 88.3995 106.216C83.6874 103.546 78.4016 101.454 73.3912 99.0826C68.6185 99.7047 62.6378 107.951 57.5017 108C52.5199 108.047 46.5632 100.253 41.6111 99.0826C36.5699 101.57 31.5092 104.039 26.1605 106.216C17.574 102.554 9.38188 98.4927 1 94.6245C1 84.3706 1 74.1155 1 63.8627C7.20127 61.8034 12.4551 58.7882 18.6564 56.7289C18.6564 51.5275 18.6564 46.3261 18.6564 41.1246C21.5273 37.7032 30.8646 36.3769 32.3401 32.2074C34.4647 26.2026 30.8006 19.1161 32.3401 11.2539C36.6099 9.91723 40.4637 7.64896 44.6992 5.90361C48.601 4.29562 53.8091 1 57.5017 1C61.1509 1 66.6459 4.34526 70.3008 5.90476C74.6735 7.76901 78.6096 9.87682 82.6599 11.7007C82.6599 18.8333 82.6599 25.9671 82.6599 33.1009C86.7092 36.2937 92.2007 38.0299 95.9036 41.5714C95.9036 46.625 95.9036 51.6775 95.9036 56.7301C102.109 59.0803 108.098 61.651 114 64.3083ZM57.5017 2.33787C49.9256 5.53538 42.1037 8.4847 34.9893 12.1462C42.6534 15.2537 50.0021 18.6798 57.0606 22.4002C64.9133 19.0376 72.7077 15.6173 80.0142 11.7007C72.534 8.5528 65.167 5.29527 57.5017 2.33787ZM33.6635 41.1246C41.6545 44.1998 48.5232 48.4085 56.6171 51.3786C56.6171 42.0169 56.6171 32.6541 56.6171 23.2913C48.6615 20.1827 41.6477 16.1195 33.6635 13.0374C33.6635 22.4002 33.6635 31.7618 33.6635 41.1246ZM58.3829 23.2913C58.3829 32.6541 58.3829 42.0169 58.3829 51.3786C66.4882 48.4189 73.5283 44.3833 81.3365 41.1246C81.3365 31.7618 81.3365 22.399 81.3365 13.0374C81.0416 13.0374 80.7468 13.0374 80.4542 13.0374C73.2049 16.565 65.9922 20.1285 58.3829 23.2913ZM20.4221 41.5702C20.7147 46.1795 19.8358 51.9708 20.8633 55.8366C26.9068 51.2343 32.5881 56.3007 38.9608 58.9579C43.6991 60.933 48.0364 62.3009 51.3199 64.3083C51.3199 74.4133 51.3199 84.5195 51.3199 94.6245C48.8604 96.1517 45.5632 96.8339 43.3757 98.6381C48.1038 101.144 52.6719 103.812 57.0594 106.663C62.2447 104.173 67.1762 101.425 71.6254 98.1914C68.8814 96.9517 65.9225 95.9266 63.6801 94.179C63.6801 84.0728 63.6801 73.9677 63.6801 63.8615C72.4677 60.8499 80.3707 56.9413 88.8418 53.6076C90.787 54.3164 92.5241 55.2375 94.5802 55.8366C94.5802 51.0819 94.5802 46.3261 94.5802 41.5702C90.4852 39.4647 86.9275 36.8167 82.6611 34.8832C82.6611 37.2611 82.6611 39.639 82.6611 42.0169C74.0003 45.6023 65.9773 49.8341 57.5017 53.6087C49.2181 49.4912 40.2259 46.0894 32.3401 41.5702C32.0543 39.4809 32.9184 36.2326 31.8978 34.8832C28.2863 37.3269 24.3673 39.4635 20.4221 41.5702ZM25.7194 54.9455C18.7844 58.6405 10.6676 61.1431 3.64805 64.7538C11.7122 67.7551 18.6312 71.9107 26.6005 75.0078C33.6807 71.1615 41.77 68.3346 48.673 64.3083C40.7528 61.4582 33.6292 57.8048 25.7194 54.9455ZM88.8406 54.9455C81.2176 58.0956 73.4186 61.0669 66.3282 64.7538C74.0335 67.9687 81.0782 71.8495 88.8406 75.0078C96.5505 71.651 104.328 68.36 111.352 64.3083C103.723 61.3139 96.5494 57.8579 88.8406 54.9455ZM2.3246 93.7322C10.1179 97.1548 17.7603 100.731 25.2771 104.433C25.2771 95.0712 25.2771 85.7073 25.2771 76.3457C17.7043 72.7003 10.055 69.1311 2.3246 65.645C2.3246 75.0078 2.3246 84.3706 2.3246 93.7322ZM27.0428 76.3457C27.3377 85.5595 26.4554 95.9612 27.4851 104.433C34.5927 100.465 42.5311 97.3384 49.9964 93.7322C49.7016 84.5183 50.5839 74.1166 49.5541 65.645C42.2214 69.3862 34.4967 72.728 27.0428 76.3457ZM65.0036 93.7322C72.8872 97.2137 80.1845 101.286 88.3995 104.433C88.3995 95.0712 88.3995 85.7073 88.3995 76.3457C80.6622 72.7153 72.9992 69.0133 65.0036 65.645C65.0036 75.0078 65.0036 84.3706 65.0036 93.7322ZM112.234 65.645C104.544 69.1738 96.8911 72.7372 89.2818 76.3457C89.2818 85.7073 89.2818 95.0712 89.2818 104.433C97.4728 101.263 104.924 97.3441 112.677 93.7322C112.382 84.5183 113.264 74.1166 112.234 65.645Z"
          fill="url(#paint0_linear_153_93895)" stroke="url(#paint1_linear_153_93895)" stroke-width="2"/>
    <defs>
        <linearGradient id="paint0_linear_153_93895" x1="57.5" y1="1" x2="57.5" y2="108" gradientUnits="userSpaceOnUse">
            <stop stop-color="#009BFF"/>
            <stop offset="1" stop-color="#00FFFF"/>
        </linearGradient>
        <linearGradient id="paint1_linear_153_93895" x1="57.5" y1="1" x2="57.5" y2="108" gradientUnits="userSpaceOnUse">
            <stop stop-color="#009BFF"/>
            <stop offset="1" stop-color="#00FFFF"/>
        </linearGradient>
    </defs>
</svg>
