<svg width="1048" height="35" viewBox="0 0 1048 35" fill="none" xmlns="http://www.w3.org/2000/svg">
    <path d="M0.333333 31.5C0.333333 32.9728 1.52724 34.1667 3 34.1667C4.47276 34.1667 5.66667 32.9728 5.66667 31.5C5.66667 30.0272 4.47276 28.8333 3 28.8333C1.52724 28.8333 0.333333 30.0272 0.333333 31.5ZM609.5 31.5V32H609.696L609.84 31.867L609.5 31.5ZM643 0.5V0H642.804L642.66 0.133019L643 0.5ZM3 32H609.5V31H3V32ZM609.84 31.867L643.34 0.866981L642.66 0.133019L609.16 31.133L609.84 31.867ZM643 1H1048V0H643V1Z"
          fill="#2C76A8"/>
</svg>
