<svg width="321" height="35" viewBox="0 0 321 35" fill="none" xmlns="http://www.w3.org/2000/svg">
<path d="M0.333333 31.9157C0.333333 33.3884 1.52724 34.5823 3 34.5823C4.47276 34.5823 5.66667 33.3884 5.66667 31.9157C5.66667 30.4429 4.47276 29.249 3 29.249C1.52724 29.249 0.333333 30.4429 0.333333 31.9157ZM184.111 31.9157V32.4157H184.307L184.451 32.2827L184.111 31.9157ZM217.56 0.962891V0.462891H217.364L217.22 0.595909L217.56 0.962891ZM3 32.4157H184.111V31.4157H3V32.4157ZM184.451 32.2827L217.9 1.32987L217.22 0.595909L183.771 31.5487L184.451 32.2827ZM217.56 1.46289H320.516V0.462891H217.56V1.46289Z" fill="#2C76A8"/>
</svg>
