<svg width="1328" height="35" viewBox="0 0 1328 35" fill="none" xmlns="http://www.w3.org/2000/svg">
    <path d="M0.333333 31.5C0.333333 32.9728 1.52724 34.1667 3 34.1667C4.47276 34.1667 5.66667 32.9728 5.66667 31.5C5.66667 30.0272 4.47276 28.8333 3 28.8333C1.52724 28.8333 0.333333 30.0272 0.333333 31.5ZM975.5 31.5V32H975.696L975.84 31.867L975.5 31.5ZM1009 0.5V0H1008.8L1008.66 0.133019L1009 0.5ZM3 32H975.5V31H3V32ZM975.84 31.867L1009.34 0.866981L1008.66 0.133019L975.16 31.133L975.84 31.867ZM1009 1H1414V0H1009V1Z"
          fill="#2C76A8"/>
</svg>
