<svg width="321" height="35" viewBox="0 0 321 35" fill="none" xmlns="http://www.w3.org/2000/svg">
<path d="M0.333333 32C0.333333 33.4728 1.52724 34.6667 3 34.6667C4.47276 34.6667 5.66667 33.4728 5.66667 32C5.66667 30.5272 4.47276 29.3333 3 29.3333C1.52724 29.3333 0.333333 30.5272 0.333333 32ZM258.5 32V32.5H258.696L258.84 32.367L258.5 32ZM292 1V0.5H291.804L291.66 0.633019L292 1ZM3 32.5H258.5V31.5H3V32.5ZM258.84 32.367L292.34 1.36698L291.66 0.633019L258.16 31.633L258.84 32.367ZM292 1.5H321V0.5H292V1.5Z" fill="#2C76A8"/>
</svg>
