<svg width="30" height="515" viewBox="0 0 30 515" fill="none" xmlns="http://www.w3.org/2000/svg">
<path d="M1.59766 0L1.59766 250" stroke="#4C7FF0" stroke-width="1.68" stroke-miterlimit="10"/>
<path d="M30 26.0391L1 26.0391" stroke="#4C7FF0" stroke-width="1.68" stroke-miterlimit="10"/>
<path d="M29.2058 92.9248H1.79492" stroke="#4C7FF0" stroke-width="1.68" stroke-miterlimit="10"/>
<path d="M29.2049 159.812H1" stroke="#4C7FF0" stroke-width="1.68" stroke-miterlimit="10"/>
<path d="M28.4093 225.675H1.39648" stroke="#4C7FF0" stroke-width="1.68" stroke-miterlimit="10"/>
<path d="M1.39648 35.1016H17.6346" stroke="#4C7FF0" stroke-width="0.827" stroke-miterlimit="10"/>
<path d="M1.39648 41.2295H17.6346" stroke="#4C7FF0" stroke-width="0.827" stroke-miterlimit="10"/>
<path d="M1.39648 47.3564H17.6346" stroke="#4C7FF0" stroke-width="0.827" stroke-miterlimit="10"/>
<path d="M1.39648 53.4824H17.6346" stroke="#4C7FF0" stroke-width="0.827" stroke-miterlimit="10"/>
<path d="M1.39648 59.6094H17.6346" stroke="#4C7FF0" stroke-width="0.827" stroke-miterlimit="10"/>
<path d="M1.39648 65.7373H17.6346" stroke="#4C7FF0" stroke-width="0.827" stroke-miterlimit="10"/>
<path d="M1.39648 71.8633H17.6346" stroke="#4C7FF0" stroke-width="0.827" stroke-miterlimit="10"/>
<path d="M1.39648 77.9902H17.6346" stroke="#4C7FF0" stroke-width="0.827" stroke-miterlimit="10"/>
<path d="M1.39648 84.1182H17.6346" stroke="#4C7FF0" stroke-width="0.827" stroke-miterlimit="10"/>
<path d="M1.79492 101.222H18.033" stroke="#4C7FF0" stroke-width="0.827" stroke-miterlimit="10"/>
<path d="M1.79492 107.349H18.033" stroke="#4C7FF0" stroke-width="0.827" stroke-miterlimit="10"/>
<path d="M1.79492 113.475H18.033" stroke="#4C7FF0" stroke-width="0.827" stroke-miterlimit="10"/>
<path d="M1.79492 119.603H18.033" stroke="#4C7FF0" stroke-width="0.827" stroke-miterlimit="10"/>
<path d="M1.79492 125.729H18.033" stroke="#4C7FF0" stroke-width="0.827" stroke-miterlimit="10"/>
<path d="M1.79492 131.855H18.033" stroke="#4C7FF0" stroke-width="0.827" stroke-miterlimit="10"/>
<path d="M1.79492 137.982H18.033" stroke="#4C7FF0" stroke-width="0.827" stroke-miterlimit="10"/>
<path d="M1.79492 144.11H18.033" stroke="#4C7FF0" stroke-width="0.827" stroke-miterlimit="10"/>
<path d="M1.79492 150.237H18.033" stroke="#4C7FF0" stroke-width="0.827" stroke-miterlimit="10"/>
<path d="M2.19141 167.342H18.4295" stroke="#4C7FF0" stroke-width="0.827" stroke-miterlimit="10"/>
<path d="M2.19141 173.469H18.4295" stroke="#4C7FF0" stroke-width="0.827" stroke-miterlimit="10"/>
<path d="M2.19141 179.595H18.4295" stroke="#4C7FF0" stroke-width="0.827" stroke-miterlimit="10"/>
<path d="M2.19141 185.723H18.4295" stroke="#4C7FF0" stroke-width="0.827" stroke-miterlimit="10"/>
<path d="M2.19141 191.85H18.4295" stroke="#4C7FF0" stroke-width="0.827" stroke-miterlimit="10"/>
<path d="M2.19141 197.977H18.4295" stroke="#4C7FF0" stroke-width="0.827" stroke-miterlimit="10"/>
<path d="M2.19141 204.103H18.4295" stroke="#4C7FF0" stroke-width="0.827" stroke-miterlimit="10"/>
<path d="M2.19141 210.23H18.4295" stroke="#4C7FF0" stroke-width="0.827" stroke-miterlimit="10"/>
<path d="M2.19141 216.357H18.4295" stroke="#4C7FF0" stroke-width="0.827" stroke-miterlimit="10"/>
<path d="M1.49805 250L1.49805 515" stroke="#4C7FF0" stroke-width="1.68" stroke-miterlimit="10"/>
<path d="M30 291.039H1" stroke="#4C7FF0" stroke-width="1.68" stroke-miterlimit="10"/>
<path d="M29.2058 357.925H1.79492" stroke="#4C7FF0" stroke-width="1.68" stroke-miterlimit="10"/>
<path d="M29.2049 424.812H1" stroke="#4C7FF0" stroke-width="1.68" stroke-miterlimit="10"/>
<path d="M28.4093 490.676H1.39648" stroke="#4C7FF0" stroke-width="1.68" stroke-miterlimit="10"/>
<path d="M1.39844 300.102H17.6366" stroke="#4C7FF0" stroke-width="0.827" stroke-miterlimit="10"/>
<path d="M1.39844 306.229H17.6366" stroke="#4C7FF0" stroke-width="0.827" stroke-miterlimit="10"/>
<path d="M1.39844 312.356H17.6366" stroke="#4C7FF0" stroke-width="0.827" stroke-miterlimit="10"/>
<path d="M1.39844 318.482H17.6366" stroke="#4C7FF0" stroke-width="0.827" stroke-miterlimit="10"/>
<path d="M1.39844 324.609H17.6366" stroke="#4C7FF0" stroke-width="0.827" stroke-miterlimit="10"/>
<path d="M1.39844 330.736H17.6366" stroke="#4C7FF0" stroke-width="0.827" stroke-miterlimit="10"/>
<path d="M1.39844 336.863H17.6366" stroke="#4C7FF0" stroke-width="0.827" stroke-miterlimit="10"/>
<path d="M1.39844 342.99H17.6366" stroke="#4C7FF0" stroke-width="0.827" stroke-miterlimit="10"/>
<path d="M1.39844 234H17.6366" stroke="#4C7FF0" stroke-width="0.827" stroke-miterlimit="10"/>
<path d="M1.39844 240.128H17.6366" stroke="#4C7FF0" stroke-width="0.827" stroke-miterlimit="10"/>
<path d="M1.39844 246.255H17.6366" stroke="#4C7FF0" stroke-width="0.827" stroke-miterlimit="10"/>
<path d="M1.39844 252.381H17.6366" stroke="#4C7FF0" stroke-width="0.827" stroke-miterlimit="10"/>
<path d="M1.39844 258.508H17.6366" stroke="#4C7FF0" stroke-width="0.827" stroke-miterlimit="10"/>
<path d="M1.39844 264.635H17.6366" stroke="#4C7FF0" stroke-width="0.827" stroke-miterlimit="10"/>
<path d="M1.39844 270.762H17.6366" stroke="#4C7FF0" stroke-width="0.827" stroke-miterlimit="10"/>
<path d="M1.39844 276.889H17.6366" stroke="#4C7FF0" stroke-width="0.827" stroke-miterlimit="10"/>
<path d="M1.39648 349.118H17.6346" stroke="#4C7FF0" stroke-width="0.827" stroke-miterlimit="10"/>
<path d="M1.39648 282H17.6346" stroke="#4C7FF0" stroke-width="0.827" stroke-miterlimit="10"/>
<path d="M1.79492 366.222H18.033" stroke="#4C7FF0" stroke-width="0.827" stroke-miterlimit="10"/>
<path d="M1.79492 372.349H18.033" stroke="#4C7FF0" stroke-width="0.827" stroke-miterlimit="10"/>
<path d="M1.79492 378.475H18.033" stroke="#4C7FF0" stroke-width="0.827" stroke-miterlimit="10"/>
<path d="M1.79492 384.603H18.033" stroke="#4C7FF0" stroke-width="0.827" stroke-miterlimit="10"/>
<path d="M1.79492 390.729H18.033" stroke="#4C7FF0" stroke-width="0.827" stroke-miterlimit="10"/>
<path d="M1.79492 396.855H18.033" stroke="#4C7FF0" stroke-width="0.827" stroke-miterlimit="10"/>
<path d="M1.79492 402.982H18.033" stroke="#4C7FF0" stroke-width="0.827" stroke-miterlimit="10"/>
<path d="M1.79492 409.11H18.033" stroke="#4C7FF0" stroke-width="0.827" stroke-miterlimit="10"/>
<path d="M1.79492 415.237H18.033" stroke="#4C7FF0" stroke-width="0.827" stroke-miterlimit="10"/>
<path d="M2.19141 432.342H18.4295" stroke="#4C7FF0" stroke-width="0.827" stroke-miterlimit="10"/>
<path d="M2.19141 438.469H18.4295" stroke="#4C7FF0" stroke-width="0.827" stroke-miterlimit="10"/>
<path d="M2.19141 444.596H18.4295" stroke="#4C7FF0" stroke-width="0.827" stroke-miterlimit="10"/>
<path d="M2.19141 450.723H18.4295" stroke="#4C7FF0" stroke-width="0.827" stroke-miterlimit="10"/>
<path d="M2.19141 456.85H18.4295" stroke="#4C7FF0" stroke-width="0.827" stroke-miterlimit="10"/>
<path d="M2.19141 462.977H18.4295" stroke="#4C7FF0" stroke-width="0.827" stroke-miterlimit="10"/>
<path d="M2.19141 469.103H18.4295" stroke="#4C7FF0" stroke-width="0.827" stroke-miterlimit="10"/>
<path d="M2.19141 475.23H18.4295" stroke="#4C7FF0" stroke-width="0.827" stroke-miterlimit="10"/>
<path d="M2.19141 481.357H18.4295" stroke="#4C7FF0" stroke-width="0.827" stroke-miterlimit="10"/>
</svg>
