<svg width="59" height="515" viewBox="0 0 59 515" fill="none" xmlns="http://www.w3.org/2000/svg">
<path d="M1.20312 0L1.20313 250" stroke="#4C7FF0" stroke-width="1.68" stroke-miterlimit="10"/>
<path d="M58.2947 26.0386L0 26.0386" stroke="#4C7FF0" stroke-width="1.68" stroke-miterlimit="10"/>
<path d="M56.6979 92.9248H1.59766" stroke="#4C7FF0" stroke-width="1.68" stroke-miterlimit="10"/>
<path d="M56.6984 159.812H0.00195312" stroke="#4C7FF0" stroke-width="1.68" stroke-miterlimit="10"/>
<path d="M55.0989 225.675H0.798828" stroke="#4C7FF0" stroke-width="1.68" stroke-miterlimit="10"/>
<path d="M0.798828 35.1021H33.44" stroke="#4C7FF0" stroke-width="0.827" stroke-miterlimit="10"/>
<path d="M0.798828 41.229H33.44" stroke="#4C7FF0" stroke-width="0.827" stroke-miterlimit="10"/>
<path d="M0.798828 47.3564H33.44" stroke="#4C7FF0" stroke-width="0.827" stroke-miterlimit="10"/>
<path d="M0.798828 53.4824H33.44" stroke="#4C7FF0" stroke-width="0.827" stroke-miterlimit="10"/>
<path d="M0.798828 59.6094H33.44" stroke="#4C7FF0" stroke-width="0.827" stroke-miterlimit="10"/>
<path d="M0.798828 65.7373H33.44" stroke="#4C7FF0" stroke-width="0.827" stroke-miterlimit="10"/>
<path d="M0.798828 71.8633H33.44" stroke="#4C7FF0" stroke-width="0.827" stroke-miterlimit="10"/>
<path d="M0.798828 77.9902H33.44" stroke="#4C7FF0" stroke-width="0.827" stroke-miterlimit="10"/>
<path d="M0.798828 84.1182H33.44" stroke="#4C7FF0" stroke-width="0.827" stroke-miterlimit="10"/>
<path d="M1.59766 101.222H34.2389" stroke="#4C7FF0" stroke-width="0.827" stroke-miterlimit="10"/>
<path d="M1.59766 107.349H34.2389" stroke="#4C7FF0" stroke-width="0.827" stroke-miterlimit="10"/>
<path d="M1.59766 113.475H34.2389" stroke="#4C7FF0" stroke-width="0.827" stroke-miterlimit="10"/>
<path d="M1.59766 119.603H34.2389" stroke="#4C7FF0" stroke-width="0.827" stroke-miterlimit="10"/>
<path d="M1.59766 125.729H34.2389" stroke="#4C7FF0" stroke-width="0.827" stroke-miterlimit="10"/>
<path d="M1.59766 131.855H34.2389" stroke="#4C7FF0" stroke-width="0.827" stroke-miterlimit="10"/>
<path d="M1.59766 137.982H34.2389" stroke="#4C7FF0" stroke-width="0.827" stroke-miterlimit="10"/>
<path d="M1.59766 144.11H34.2389" stroke="#4C7FF0" stroke-width="0.827" stroke-miterlimit="10"/>
<path d="M1.59766 150.237H34.2389" stroke="#4C7FF0" stroke-width="0.827" stroke-miterlimit="10"/>
<path d="M2.39453 167.342H35.0358" stroke="#4C7FF0" stroke-width="0.827" stroke-miterlimit="10"/>
<path d="M2.39453 173.469H35.0358" stroke="#4C7FF0" stroke-width="0.827" stroke-miterlimit="10"/>
<path d="M2.39453 179.595H35.0358" stroke="#4C7FF0" stroke-width="0.827" stroke-miterlimit="10"/>
<path d="M2.39453 185.723H35.0358" stroke="#4C7FF0" stroke-width="0.827" stroke-miterlimit="10"/>
<path d="M2.39453 191.85H35.0358" stroke="#4C7FF0" stroke-width="0.827" stroke-miterlimit="10"/>
<path d="M2.39453 197.977H35.0358" stroke="#4C7FF0" stroke-width="0.827" stroke-miterlimit="10"/>
<path d="M2.39453 204.103H35.0358" stroke="#4C7FF0" stroke-width="0.827" stroke-miterlimit="10"/>
<path d="M2.39453 210.23H35.0358" stroke="#4C7FF0" stroke-width="0.827" stroke-miterlimit="10"/>
<path d="M2.39453 216.357H35.0358" stroke="#4C7FF0" stroke-width="0.827" stroke-miterlimit="10"/>
<path d="M1 250L1.00001 515" stroke="#4C7FF0" stroke-width="1.68" stroke-miterlimit="10"/>
<path d="M58.2947 291.039H0" stroke="#4C7FF0" stroke-width="1.68" stroke-miterlimit="10"/>
<path d="M56.6979 357.925H1.59766" stroke="#4C7FF0" stroke-width="1.68" stroke-miterlimit="10"/>
<path d="M56.6984 424.812H0.00195312" stroke="#4C7FF0" stroke-width="1.68" stroke-miterlimit="10"/>
<path d="M55.0989 490.676H0.798828" stroke="#4C7FF0" stroke-width="1.68" stroke-miterlimit="10"/>
<path d="M0.798828 300.102H33.44" stroke="#4C7FF0" stroke-width="0.827" stroke-miterlimit="10"/>
<path d="M0.798828 306.229H33.44" stroke="#4C7FF0" stroke-width="0.827" stroke-miterlimit="10"/>
<path d="M0.798828 312.356H33.44" stroke="#4C7FF0" stroke-width="0.827" stroke-miterlimit="10"/>
<path d="M0.798828 318.482H33.44" stroke="#4C7FF0" stroke-width="0.827" stroke-miterlimit="10"/>
<path d="M0.798828 324.609H33.44" stroke="#4C7FF0" stroke-width="0.827" stroke-miterlimit="10"/>
<path d="M0.798828 330.736H33.44" stroke="#4C7FF0" stroke-width="0.827" stroke-miterlimit="10"/>
<path d="M0.798828 336.863H33.44" stroke="#4C7FF0" stroke-width="0.827" stroke-miterlimit="10"/>
<path d="M0.798828 342.99H33.44" stroke="#4C7FF0" stroke-width="0.827" stroke-miterlimit="10"/>
<path d="M0.798828 234H33.44" stroke="#4C7FF0" stroke-width="0.827" stroke-miterlimit="10"/>
<path d="M0.798828 240.128H33.44" stroke="#4C7FF0" stroke-width="0.827" stroke-miterlimit="10"/>
<path d="M0.798828 246.255H33.44" stroke="#4C7FF0" stroke-width="0.827" stroke-miterlimit="10"/>
<path d="M0.798828 252.381H33.44" stroke="#4C7FF0" stroke-width="0.827" stroke-miterlimit="10"/>
<path d="M0.798828 258.508H33.44" stroke="#4C7FF0" stroke-width="0.827" stroke-miterlimit="10"/>
<path d="M0.798828 264.635H33.44" stroke="#4C7FF0" stroke-width="0.827" stroke-miterlimit="10"/>
<path d="M0.798828 270.762H33.44" stroke="#4C7FF0" stroke-width="0.827" stroke-miterlimit="10"/>
<path d="M0.798828 276.889H33.44" stroke="#4C7FF0" stroke-width="0.827" stroke-miterlimit="10"/>
<path d="M0.798828 349.118H33.44" stroke="#4C7FF0" stroke-width="0.827" stroke-miterlimit="10"/>
<path d="M0.798828 282H33.44" stroke="#4C7FF0" stroke-width="0.827" stroke-miterlimit="10"/>
<path d="M1.59766 366.222H34.2389" stroke="#4C7FF0" stroke-width="0.827" stroke-miterlimit="10"/>
<path d="M1.59766 372.349H34.2389" stroke="#4C7FF0" stroke-width="0.827" stroke-miterlimit="10"/>
<path d="M1.59766 378.475H34.2389" stroke="#4C7FF0" stroke-width="0.827" stroke-miterlimit="10"/>
<path d="M1.59766 384.603H34.2389" stroke="#4C7FF0" stroke-width="0.827" stroke-miterlimit="10"/>
<path d="M1.59766 390.729H34.2389" stroke="#4C7FF0" stroke-width="0.827" stroke-miterlimit="10"/>
<path d="M1.59766 396.855H34.2389" stroke="#4C7FF0" stroke-width="0.827" stroke-miterlimit="10"/>
<path d="M1.59766 402.982H34.2389" stroke="#4C7FF0" stroke-width="0.827" stroke-miterlimit="10"/>
<path d="M1.59766 409.11H34.2389" stroke="#4C7FF0" stroke-width="0.827" stroke-miterlimit="10"/>
<path d="M1.59766 415.237H34.2389" stroke="#4C7FF0" stroke-width="0.827" stroke-miterlimit="10"/>
<path d="M2.39453 432.342H35.0358" stroke="#4C7FF0" stroke-width="0.827" stroke-miterlimit="10"/>
<path d="M2.39453 438.469H35.0358" stroke="#4C7FF0" stroke-width="0.827" stroke-miterlimit="10"/>
<path d="M2.39453 444.596H35.0358" stroke="#4C7FF0" stroke-width="0.827" stroke-miterlimit="10"/>
<path d="M2.39453 450.723H35.0358" stroke="#4C7FF0" stroke-width="0.827" stroke-miterlimit="10"/>
<path d="M2.39453 456.85H35.0358" stroke="#4C7FF0" stroke-width="0.827" stroke-miterlimit="10"/>
<path d="M2.39453 462.977H35.0358" stroke="#4C7FF0" stroke-width="0.827" stroke-miterlimit="10"/>
<path d="M2.39453 469.103H35.0358" stroke="#4C7FF0" stroke-width="0.827" stroke-miterlimit="10"/>
<path d="M2.39453 475.23H35.0358" stroke="#4C7FF0" stroke-width="0.827" stroke-miterlimit="10"/>
<path d="M2.39453 481.357H35.0358" stroke="#4C7FF0" stroke-width="0.827" stroke-miterlimit="10"/>
</svg>
