<svg width="1255" height="35" viewBox="0 0 1255 35" fill="none" xmlns="http://www.w3.org/2000/svg">
<path d="M0.333333 32C0.333333 33.4728 1.52724 34.6667 3 34.6667C4.47276 34.6667 5.66667 33.4728 5.66667 32C5.66667 30.5272 4.47276 29.3333 3 29.3333C1.52724 29.3333 0.333333 30.5272 0.333333 32ZM684.5 32V32.5H684.696L684.84 32.367L684.5 32ZM718 1V0.5H717.804L717.66 0.633019L718 1ZM3 32.5H684.5V31.5H3V32.5ZM684.84 32.367L718.34 1.36698L717.66 0.633019L684.16 31.633L684.84 32.367ZM718 1.5H1255V0.5H718V1.5Z" fill="#2C76A8"/>
</svg>
